<?xml version="1.0" encoding="utf-8"?>
<svg viewBox="0 0 695 150" xmlns="http://www.w3.org/2000/svg">
  <g id="Layer1000" transform="matrix(1, 0, 0, 1, -115.10363, -61.659504)">
    <path d="m 184.8414,68.8232 c 0.0792,2.673 0.2288,5.2589 0.5577,7.6196 0.335,2.4084 0.858,4.5768 1.6837,6.3544 0.328,0.7083 0.7109,1.3609 1.1242,1.963 0.3402,0.4968 0.7022,0.9597 1.0755,1.3948 0.3724,-0.4351 0.7352,-0.8988 1.0754,-1.3948 0.4133,-0.6021 0.7953,-1.2547 1.1242,-1.963 0.8327,-1.7924 1.3574,-3.9825 1.6924,-6.4127 0.328,-2.3833 0.4751,-4.9962 0.5534,-7.6945 -0.4908,-0.2236 -0.9136,-0.6499 -1.2199,-1.2094 -0.3341,-0.6091 -0.5343,-1.3818 -0.5343,-2.2188 0,-0.9693 0.2698,-1.8534 0.7057,-2.4981 0.4603,-0.6822 1.1094,-1.1042 1.8351,-1.1042 0.7265,0 1.3756,0.422 1.8368,1.1042 0.435,0.643 0.7048,1.5279 0.7048,2.4981 0,0.8744 -0.2193,1.6793 -0.5804,2.2997 -0.3332,0.5725 -0.7909,0.9945 -1.3156,1.1868 -0.0809,2.7618 -0.2323,5.4391 -0.5734,7.8902 -0.3533,2.539 -0.911,4.8431 -1.8012,6.76 -0.3724,0.8022 -0.8022,1.534 -1.2642,2.2057 -0.4003,0.5813 -0.8249,1.1172 -1.2591,1.615 0.2828,0.2871 0.5656,0.5612 0.8432,0.8231 0.3402,0.3211 0.6882,0.6378 1.0206,0.9397 0.5708,0.5203 1.1007,1.0024 1.5549,1.4757 0.4646,0.4838 0.8501,0.958 1.1155,1.4496 0.723,1.3365 0.5421,2.6374 -0.0905,3.9199 -0.603,1.2225 -1.621,2.4198 -2.6391,3.6153 l -0.0409,0.0505 c -0.1401,0.1392 -0.3245,0.2106 -0.509,0.2106 -0.1827,0 -0.3672,-0.0705 -0.5081,-0.2106 -0.141,-0.1418 -0.2115,-0.3254 -0.2115,-0.509 0,-0.1836 0.0705,-0.3689 0.2106,-0.5082 0.8971,-1.0528 1.7898,-2.1056 2.3206,-3.1211 0.5012,-0.9606 0.6778,-1.8933 0.2045,-2.7669 -0.2019,-0.3733 -0.5247,-0.7623 -0.925,-1.1756 -0.4124,-0.4254 -0.911,-0.8788 -1.4478,-1.3678 -0.3281,-0.2976 -0.67,-0.6099 -1.032,-0.9501 -0.2793,-0.2637 -0.563,-0.5378 -0.8457,-0.8232 -0.6422,0.65 -1.2817,1.2312 -1.8734,1.7707 l -0.004,0.0026 c -0.5386,0.489 -1.0363,0.9424 -1.4487,1.3678 -0.4011,0.4133 -0.7222,0.8023 -0.925,1.1756 -0.4742,0.8779 -0.2949,1.8142 0.2106,2.7791 0.5386,1.025 1.4444,2.0892 2.3502,3.1533 l 0.0278,0.0331 c 0.1184,0.1592 0.1627,0.3506 0.1375,0.5308 -0.0261,0.1818 -0.1218,0.3541 -0.2802,0.4733 -0.1566,0.1175 -0.348,0.1618 -0.5273,0.1366 -0.1801,-0.0244 -0.3523,-0.1183 -0.4716,-0.2741 -1.0128,-1.1912 -2.0247,-2.3832 -2.6234,-3.6005 -0.629,-1.2808 -0.8083,-2.579 -0.087,-3.9121 0.2654,-0.4916 0.6509,-0.9658 1.1155,-1.4496 0.4542,-0.4733 0.9841,-0.9554 1.5549,-1.4757 0.3333,-0.3019 0.6813,-0.6186 1.0215,-0.9397 0.2776,-0.2619 0.5595,-0.536 0.8423,-0.8231 -0.4342,-0.4978 -0.8588,-1.0337 -1.259,-1.615 -0.4621,-0.6708 -0.8919,-1.4035 -1.2643,-2.2057 -0.8832,-1.9004 -1.4383,-4.1818 -1.7925,-6.6956 -0.3411,-2.425 -0.4951,-5.0736 -0.5769,-7.8067 -0.5299,-0.1888 -0.9901,-0.6099 -1.326,-1.1816 -0.3663,-0.6238 -0.5882,-1.4322 -0.5882,-2.311 0,-0.971 0.2697,-1.8551 0.7057,-2.499 0.4611,-0.6813 1.1094,-1.1033 1.8359,-1.1033 0.7265,0 1.3757,0.422 1.8368,1.1033 0.4351,0.6439 0.7048,1.528 0.7048,2.499 0,0.831 -0.1984,1.5993 -0.5299,2.2075 -0.3028,0.5586 -0.7222,0.9858 -1.2077,1.2121 z m -18.5222,83.3179 c 0.4325,-0.1775 1.7585,-1.0415 2.4833,-1.2538 0.2193,0.4307 0.4212,0.9188 0.6396,1.3634 0.2245,0.4569 0.4629,0.8971 0.6952,1.3191 0.9606,1.7498 2.0543,3.2839 3.2916,4.7622 l 0.9563,1.0554 c 0.1662,0.1819 0.3115,0.3315 0.4864,0.503 0.1462,0.1444 0.4081,0.3402 0.5021,0.4977 -0.2002,-0.0714 -0.5195,-0.2889 -0.704,-0.402 -1.5209,-0.9389 -3.0445,-2.0474 -4.3123,-3.2456 -0.1035,-0.0974 -0.1966,-0.1653 -0.3045,-0.2619 l -1.8359,-1.909 c -0.3063,-0.3324 -1.7855,-2.0996 -1.8978,-2.4285 z m 4.234,-1.9725 c 0.3054,-0.074 0.6474,-0.2228 0.9606,-0.3211 1.0111,-0.3176 1.856,-0.5726 2.9123,-0.8292 0.6291,-0.154 3.6649,-0.8649 4.1426,-0.8119 0.5673,3.8538 1.8238,8.6542 3.5658,12.0494 0.4959,0.9658 0.8649,1.5984 1.4774,2.4442 0.1758,0.2436 0.4064,0.4924 0.5447,0.7108 -1.1355,-0.1714 -3.5788,-1.4739 -4.5733,-2.1213 -1.3635,-0.8875 -1.7933,-1.2799 -2.8349,-2.2162 -1.835,-1.6488 -3.9094,-4.3453 -5.0945,-6.632 -0.2245,-0.4324 -1.0076,-1.8934 -1.1007,-2.2727 z m 22.9232,13.2335 c 0.0435,-0.0304 0.3533,-0.442 0.4203,-0.5307 2.834,-3.7572 4.314,-9.6531 5.1084,-14.2847 0.1079,-0.6308 0.0235,-0.5786 0.342,-0.5264 l 0.5917,0.0983 v -1.896 c -0.2994,-0.0522 -0.5282,-0.0966 -0.5647,-0.1166 0.0504,-0.7283 0.1775,-1.4975 0.2514,-2.2405 0.0757,-0.7597 0.1392,-1.5167 0.1915,-2.2797 0.0504,-0.7414 0.0913,-1.4827 0.1218,-2.2249 v -7.014 c -0.0305,-0.7362 -0.0714,-1.4714 -0.1218,-2.2066 -0.0523,-0.7614 -0.1158,-1.5236 -0.1915,-2.2798 -0.0739,-0.7413 -0.2018,-1.514 -0.2514,-2.2405 0.2149,-0.1149 0.8579,-0.1531 1.1503,-0.2019 1.8603,-0.3097 3.5631,-0.6578 5.3808,-1.159 0.6813,-0.1888 1.3408,-0.4141 1.996,-0.5995 0.1436,0.1523 0.7152,2.1336 0.8223,2.5147 l 0.0243,0.0878 h 1.9447 c -0.1714,-0.6708 -0.3602,-1.3234 -0.5655,-1.949 -0.1262,-0.3846 -0.3577,-0.9493 -0.436,-1.3191 0.6483,-0.1601 2.653,-1.1964 3.33,-1.5784 0.1366,-0.0774 0.2801,-0.1819 0.4228,-0.2384 0.925,1.541 1.7629,3.2429 2.4372,5.0849 h 1.9874 c -4.0861,-12.1224 -15.6795,-20.9254 -29.577,-20.4773 -16.2033,0.5221 -29.6266,14.2247 -29.0018,31.1484 0.1679,4.5455 1.2808,8.495 2.9888,12.0572 1.4444,3.0115 3.9138,6.4694 6.364,8.6829 l 0.4751,0.4438 c 1.6689,1.4557 1.8516,1.5845 3.7145,2.8896 0.3594,0.2524 0.7579,0.4899 1.1495,0.7231 0.3854,0.2289 0.7813,0.4647 1.1955,0.6761 0.8292,0.4229 1.6593,0.8457 2.5616,1.2182 7.1602,2.9531 15.0409,3.0749 22.2002,0.4028 v -4.1722 c -1.2208,0.9989 -2.5747,1.8951 -4.0278,2.5895 -0.3576,0.1714 -2.0935,0.9249 -2.4346,0.9179 z M 180.429,147.9184 c 1.2887,-0.2018 2.7365,-0.3097 4.0556,-0.3959 3.9904,-0.2601 8.8326,-0.234 12.7324,0.2672 0.0244,0.3976 -0.3567,2.1196 -0.4585,2.6147 -0.7257,3.5178 -2.1344,8.3974 -4.2105,11.1888 -0.6639,0.8936 -1.9325,2.4929 -3.6493,2.5094 -4.0155,0.0374 -6.5293,-7.6562 -7.4177,-11.1018 -0.2114,-0.8197 -0.9928,-4.207 -1.052,-5.0824 z m -0.2549,-1.8664 c -0.1645,-0.308 -0.4281,-3.8102 -0.4734,-4.4489 -0.1113,-1.574 -0.1827,-3.1733 -0.1905,-4.7595 h 18.6161 c -0.0183,2.9149 -0.194,6.2466 -0.6239,9.0779 -0.4759,0.0139 -1.3539,-0.1305 -1.8846,-0.1757 -4.3262,-0.3725 -8.9814,-0.3551 -13.2928,0.0696 -0.6987,0.0696 -1.4714,0.2001 -2.1509,0.2366 z m -10.3466,2.3894 c -0.6795,-2.1988 -1.0328,-2.9088 -1.5096,-5.3791 -0.3837,-1.9856 -0.6474,-4.1235 -0.6761,-6.2187 l 9.9863,0.007 c 0.0279,2.7408 0.1993,5.6183 0.5221,8.3444 0.0331,0.281 0.1392,0.884 0.1218,1.1276 l -2.2362,0.4186 c -1.7393,0.3419 -3.5535,0.8205 -5.2311,1.3748 -0.2567,0.0852 -0.7475,0.2871 -0.9772,0.3254 z m -4.5559,2.1474 c -1.0755,-1.8063 -2.1118,-3.8572 -2.7992,-6.1326 -0.73,-2.418 -1.2373,-4.8865 -1.3051,-7.6135 l 4.5924,0.008 c 0.0766,3.4761 0.724,7.6579 1.8664,10.9643 0.1462,0.4246 0.3507,0.9241 0.4629,1.3339 -0.4863,0.2088 -0.9928,0.4446 -1.46,0.69 z m 14.2386,-15.6264 c 0.008,-1.5853 0.0792,-3.1855 0.1905,-4.7595 0.0453,-0.6387 0.3089,-4.1409 0.4734,-4.4489 0.6604,0.0356 1.407,0.1636 2.0839,0.2297 4.361,0.4255 8.8056,0.4498 13.1736,0.0931 l 2.0708,-0.1914 c 0.4299,2.8296 0.6056,6.163 0.6239,9.077 z m -11.8684,0 c 0.0279,-2.1005 0.2941,-4.2575 0.6813,-6.2483 0.1845,-0.9484 0.4072,-1.8577 0.6639,-2.7626 0.2541,-0.8997 0.576,-1.7324 0.8405,-2.5869 0.2332,0.0392 0.7422,0.248 1.0042,0.3342 0.9884,0.3263 2.0613,0.6412 3.0706,0.8866 0.7126,0.174 1.4305,0.3411 2.1622,0.4855 l 2.2075,0.4125 c 0.0183,0.2471 -0.0922,0.8727 -0.1262,1.1598 -0.3202,2.6861 -0.4907,5.6245 -0.5177,8.3192 z m 12.7872,-11.0748 c 0.0287,-0.4212 0.3716,-2.124 0.4751,-2.6182 0.5351,-2.5477 1.1503,-4.7239 2.0979,-7.1219 0.9754,-2.4685 3.0384,-6.4702 5.8967,-6.4441 2.8236,0.027 4.8883,4.3402 5.7811,6.559 0.5917,1.4704 1.1007,3.061 1.5088,4.6707 0.2036,0.8032 1.065,4.4803 1.0284,5.0833 -4.4515,0.5699 -12.1729,0.5925 -16.788,-0.1288 z m -19.2617,11.0722 c 0.0687,-2.7461 0.583,-5.2094 1.3138,-7.637 0.6779,-2.2519 1.7255,-4.3175 2.7905,-6.1056 l 1.3809,0.7631 c 0.4585,0.2384 0.9597,0.4751 1.4365,0.6769 -0.1157,0.4212 -0.321,0.9206 -0.4724,1.36 -0.4377,1.2765 -0.8797,3.0193 -1.1355,4.3375 -0.4168,2.1458 -0.6718,4.3393 -0.7214,6.6025 -0.837,0.0365 -3.6788,0.0244 -4.5924,0.003 z m 5.1519,-15.2949 c 0.1775,-0.5195 2.1466,-2.7217 2.6974,-3.2899 l 0.8127,-0.8127 c 0.596,-0.5795 1.0163,-0.9589 1.6967,-1.5175 0.5856,-0.4803 3.1716,-2.3858 3.8477,-2.6269 -0.0897,0.1506 -0.3759,0.3733 -0.5204,0.5152 l -1.44,1.5609 c -1.7063,2.1257 -2.7148,3.5075 -3.9825,6.0848 -0.2123,0.4307 -0.4133,0.9188 -0.6283,1.3399 -0.7361,-0.2192 -2.0526,-1.0763 -2.4833,-1.2538 z m 42.6862,1.6376 c -0.1288,-0.2315 -0.268,-0.583 -0.3846,-0.8484 -0.1262,-0.2863 -0.2654,-0.5656 -0.3985,-0.8379 -0.8136,-1.6585 -1.7055,-3.0907 -2.76,-4.5507 -0.3472,-0.4795 -0.7022,-0.9197 -1.0729,-1.3644 -0.3811,-0.4559 -0.73,-0.8727 -1.1546,-1.2817 l -1.3913,-1.3634 c -0.0627,-0.0592 -0.1114,-0.087 -0.1749,-0.1453 l -0.9694,-0.8266 c 0.5726,0.1305 3.0254,1.5279 3.5005,1.8281 1.1286,0.7126 2.8836,1.9464 3.8068,2.8331 0.2245,0.2158 0.4986,0.422 0.7109,0.6334 0.2488,0.2489 0.4411,0.4359 0.6708,0.67 0.3333,0.3402 0.9815,0.9893 1.2782,1.3713 0.1854,0.2393 0.3977,0.4699 0.5961,0.71 0.1949,0.2358 1.0537,1.3026 1.1328,1.5349 l -1.6619,0.8814 c -0.5438,0.2576 -1.1581,0.5613 -1.728,0.7562 z m -1.7803,0.6465 c -2.7704,0.9258 -5.0397,1.333 -7.9102,1.802 -0.2262,0.0365 -0.2175,0.0644 -0.2523,-0.1645 l -0.2097,-1.2382 c -0.1967,-1.0824 -0.4194,-2.1352 -0.6718,-3.1794 -0.5012,-2.07 -1.112,-4.0399 -1.882,-5.8906 -0.5056,-1.2156 -1.2695,-2.7444 -2.0178,-3.8103 -0.1036,-0.1479 -0.7179,-1.0032 -0.8049,-1.0641 0.3489,-0.007 2.09,0.7544 2.459,0.9292 2.2483,1.0625 4.3123,2.6443 5.9063,4.3376 0.0783,0.0835 0.1575,0.1401 0.2341,0.2236 l 0.5969,0.6752 c 0.6117,0.6387 1.7089,2.1666 2.1944,2.9279 0.543,0.8501 2.043,3.4353 2.358,4.4516 z m -36.6719,-0.3115 c 0.094,-0.3812 0.8727,-1.8334 1.1007,-2.2728 0.3803,-0.7335 0.8292,-1.4348 1.2625,-2.0926 0.9285,-1.4096 1.9456,-2.6486 2.9802,-3.7311 1.0172,-1.0633 2.4676,-2.2301 3.6867,-3.0245 0.6578,-0.4281 1.3809,-0.844 2.15,-1.2042 0.5265,-0.2463 1.8438,-0.8293 2.4233,-0.9171 -0.0774,0.1226 -0.1818,0.2392 -0.2863,0.3689 -0.0922,0.1157 -0.1818,0.2358 -0.274,0.362 -2.7305,3.7597 -4.3645,9.9689 -5.0276,14.4735 -0.482,0.0539 -3.5318,-0.6631 -4.1704,-0.8179 -0.67,-0.1628 -1.3217,-0.3403 -1.9709,-0.5378 z m 21.9113,-21.92 c 0.656,0.0574 1.1407,0.6352 1.0833,1.2904 -0.0575,0.656 -0.6352,1.1407 -1.2904,1.0833 -0.6561,-0.0575 -1.1407,-0.6352 -1.0833,-1.2904 0.0574,-0.6561 0.6352,-1.1407 1.2904,-1.0833 z m 3.678,0.6404 c 0.3436,0.261 0.5333,0.7013 0.4533,1.1564 -0.114,0.6482 -0.7327,1.0807 -1.38,0.9658 -0.6483,-0.114 -1.0807,-0.7318 -0.9667,-1.38 0.1114,-0.6352 0.7074,-1.0641 1.3417,-0.9719 -0.2323,-1.4818 0.2541,-6.1387 1.2582,-11.59 0.8214,-4.4584 1.7759,-8.2974 2.5042,-10.2604 -0.8484,-0.475 -1.28,-1.9603 -0.9798,-3.5909 0.342,-1.8586 1.5062,-3.2021 2.5991,-3.0011 1.0928,0.2019 1.7019,1.8717 1.36,3.7302 -0.2646,1.4348 -1.0181,2.5616 -1.8508,2.9088 0.005,2.0491 -0.4733,6.0656 -1.3156,10.6398 -1.0363,5.6262 -2.2858,10.2656 -3.0236,11.3933 z m 2.6033,0.4673 c 0.6352,0.1696 1.012,0.8231 0.8423,1.4591 -0.1705,0.6352 -0.824,1.012 -1.4592,0.8423 -0.636,-0.1705 -1.0128,-0.824 -0.8422,-1.4592 0.1696,-0.636 0.8231,-1.0128 1.4591,-0.8422 z m 3.0437,0.9597 c 0.6187,0.2245 0.9371,0.9084 0.7118,1.527 -0.2245,0.6178 -0.9084,0.9372 -1.5262,0.7118 -0.6187,-0.2254 -0.9371,-0.9084 -0.7126,-1.5271 0.2253,-0.6186 0.9084,-0.9371 1.527,-0.7117 z m 2.9488,1.2216 c 0.5969,0.2776 0.8545,0.9867 0.576,1.5828 -0.2775,0.596 -0.9867,0.8544 -1.5827,0.576 -0.596,-0.2776 -0.8545,-0.9867 -0.576,-1.5828 0.2776,-0.5968 0.9867,-0.8544 1.5827,-0.576 z m 3.2377,1.8595 c 0.2341,0.3637 0.2602,0.8414 0.0296,1.2416 -0.3289,0.57 -1.0572,0.7649 -1.6271,0.436 -0.5699,-0.3289 -0.7648,-1.0581 -0.4359,-1.6272 0.3228,-0.5586 1.0284,-0.7578 1.5932,-0.455 0.2888,-1.4723 2.3388,-5.6828 5.1458,-10.4614 2.2971,-3.9077 4.5072,-7.1889 5.8629,-8.7839 -0.6344,-0.7378 -0.5326,-2.2805 0.3071,-3.7101 0.9571,-1.6298 2.5103,-2.4938 3.4692,-1.9308 0.958,0.5629 0.9588,2.3397 0.002,3.9695 -0.7396,1.2581 -1.8333,2.0595 -2.7348,2.1013 -0.6952,1.9273 -2.5181,5.5374 -4.8744,9.5478 -2.8974,4.9318 -5.6583,8.8656 -6.7373,9.6722 z m 2.2858,1.3286 c 0.5386,0.3777 0.67,1.1207 0.2924,1.6593 -0.3776,0.5395 -1.1199,0.67 -1.6593,0.2924 -0.5386,-0.3768 -0.67,-1.1198 -0.2924,-1.6584 0.3776,-0.5395 1.1199,-0.67 1.6593,-0.2933 z m 2.5321,1.943 c 0.5038,0.4238 0.5699,1.1747 0.147,1.6785 -0.4229,0.5046 -1.1746,0.5699 -1.6784,0.147 -0.5038,-0.4229 -0.57,-1.1738 -0.1471,-1.6784 0.4229,-0.5038 1.1747,-0.57 1.6785,-0.1471 z m 2.3536,2.157 c 0.4647,0.4655 0.4647,1.2191 0,1.6846 -0.4655,0.4655 -1.2199,0.4655 -1.6854,0 -0.4646,-0.4655 -0.4646,-1.2191 0,-1.6846 0.4655,-0.4655 1.2199,-0.4655 1.6854,0 z m 2.4059,2.8549 c 0.0948,0.4211 -0.0426,0.8797 -0.3968,1.1764 -0.5038,0.4228 -1.2556,0.3576 -1.6784,-0.1462 -0.4229,-0.5047 -0.3568,-1.2556 0.147,-1.6785 0.4942,-0.415 1.226,-0.3611 1.6532,0.1166 0.7744,-1.2843 4.1409,-4.5385 8.4132,-8.0694 3.4944,-2.8871 6.6938,-5.2138 8.5141,-6.2492 -0.3446,-0.9101 0.2793,-2.3249 1.5575,-3.3813 1.4566,-1.2042 3.2116,-1.4853 3.9199,-0.6282 0.7074,0.8571 0.1009,2.5277 -1.3557,3.7311 -1.125,0.9293 -2.4276,1.3086 -3.2882,1.0389 -1.313,1.5732 -4.2609,4.3427 -7.8467,7.3055 -4.4088,3.6432 -8.3487,6.3953 -9.6391,6.7843 z m 1.6932,2.0308 c 0.3777,0.5386 0.2463,1.2817 -0.2923,1.6585 -0.5395,0.3776 -1.2817,0.2471 -1.6593,-0.2924 -0.3777,-0.5386 -0.2463,-1.2817 0.2923,-1.6593 0.5395,-0.3768 1.2817,-0.2462 1.6593,0.2932 z m 1.715,2.6913 c 0.3289,0.5699 0.134,1.2991 -0.4359,1.628 -0.5699,0.3289 -1.2982,0.134 -1.6271,-0.4359 -0.3298,-0.57 -0.134,-1.2991 0.4359,-1.628 0.5699,-0.3289 1.2982,-0.134 1.6271,0.4359 z m 1.474,2.8314 c 0.2776,0.5968 0.02,1.3051 -0.576,1.5836 -0.5969,0.2775 -1.3052,0.02 -1.5836,-0.5761 -0.2785,-0.5969 -0.02,-1.3051 0.576,-1.5836 0.5969,-0.2784 1.3052,-0.02 1.5836,0.5761 z m -33.1601,52.0503 c -0.6578,0 -1.1912,-0.5334 -1.1912,-1.1912 0,-0.6578 0.5334,-1.1912 1.1912,-1.1912 0.6587,0 1.1921,0.5334 1.1921,1.1912 0,0.6578 -0.5334,1.1912 -1.1921,1.1912 z m -3.1881,-0.1392 c -0.6561,-0.0575 -1.1407,-0.6352 -1.0833,-1.2904 0.0574,-0.6561 0.6352,-1.1407 1.2904,-1.0833 0.656,0.0574 1.1407,0.6352 1.0833,1.2904 -0.0575,0.656 -0.6352,1.1407 -1.2904,1.0833 z m -3.6771,-0.6404 c -0.3446,-0.2611 -0.5343,-0.7014 -0.4542,-1.1564 0.114,-0.6483 0.7318,-1.0807 1.38,-0.9667 0.6482,0.1148 1.0807,0.7326 0.9667,1.3809 -0.1114,0.6351 -0.7083,1.0641 -1.3417,0.9719 0.2323,1.4809 -0.2541,6.1395 -1.2582,11.5908 -0.8205,4.4576 -1.7759,8.2965 -2.5042,10.2595 0.8483,0.476 1.2799,1.9613 0.9797,3.5919 -0.3419,1.8585 -1.5061,3.202 -2.599,3.0001 -1.0929,-0.201 -1.7019,-1.8707 -1.36,-3.7293 0.2645,-1.4348 1.0189,-2.5625 1.8516,-2.9097 -0.006,-2.0482 0.4725,-6.0647 1.3148,-10.6397 1.0363,-5.6271 2.2866,-10.2674 3.0245,-11.3933 z m -2.6043,-0.4673 c -0.6352,-0.1697 -1.0128,-0.8231 -0.8422,-1.4592 0.1705,-0.6352 0.824,-1.0128 1.4591,-0.8422 0.6361,0.1705 1.0129,0.824 0.8423,1.4591 -0.1697,0.6361 -0.8231,1.0128 -1.4592,0.8423 z m -3.0436,-0.9597 c -0.6187,-0.2245 -0.9372,-0.9084 -0.7118,-1.5271 0.2245,-0.6178 0.9084,-0.9371 1.5262,-0.7117 0.6186,0.2253 0.9371,0.9084 0.7126,1.527 -0.2253,0.6178 -0.9093,0.9371 -1.527,0.7118 z m -2.9489,-1.2217 c -0.5969,-0.2775 -0.8544,-0.9867 -0.576,-1.5827 0.2776,-0.5969 0.9867,-0.8545 1.5828,-0.576 0.596,0.2775 0.8544,0.9867 0.576,1.5827 -0.2776,0.5969 -0.9867,0.8545 -1.5828,0.576 z m -3.2368,-1.8594 c -0.2341,-0.3628 -0.261,-0.8414 -0.0304,-1.2417 0.3289,-0.5699 1.0571,-0.7648 1.6271,-0.4359 0.5699,0.3289 0.7648,1.0572 0.4359,1.6271 -0.3228,0.5586 -1.0285,0.757 -1.5932,0.4551 -0.288,1.4705 -2.3389,5.6818 -5.1458,10.4614 -2.2972,3.9086 -4.5072,7.1889 -5.8629,8.7847 0.6343,0.737 0.5325,2.2806 -0.3071,3.7102 -0.9572,1.6288 -2.5103,2.4928 -3.4692,1.9299 -0.958,-0.563 -0.9589,-2.3398 -0.002,-3.9695 0.7387,-1.2573 1.8333,-2.0596 2.7347,-2.1005 0.6953,-1.9273 2.5182,-5.5374 4.8744,-9.5477 2.8984,-4.9327 5.6601,-8.8665 6.7382,-9.6731 z m -2.2867,-1.3287 c -0.5386,-0.3776 -0.6699,-1.1207 -0.2923,-1.6593 0.3776,-0.5395 1.1198,-0.67 1.6593,-0.2932 0.5386,0.3776 0.67,1.1207 0.2924,1.6593 -0.3777,0.5395 -1.1199,0.67 -1.6594,0.2932 z m -2.532,-1.9438 c -0.5038,-0.4229 -0.5699,-1.1738 -0.147,-1.6785 0.4228,-0.5038 1.1746,-0.569 1.6784,-0.1462 0.5038,0.4229 0.5699,1.1738 0.1471,1.6785 -0.4229,0.5038 -1.1747,0.5699 -1.6785,0.1462 z m -2.3537,-2.1562 c -0.4646,-0.4655 -0.4646,-1.219 0,-1.6845 0.4656,-0.4655 1.2199,-0.4655 1.6855,0 0.4646,0.4655 0.4646,1.219 0,1.6845 -0.4656,0.4655 -1.2199,0.4655 -1.6855,0 z m -2.405,-2.8539 c -0.0957,-0.4221 0.0418,-0.8806 0.3959,-1.1773 0.5038,-0.4229 1.2556,-0.3576 1.6785,0.1462 0.4229,0.5046 0.3567,1.2555 -0.1471,1.6784 -0.4942,0.4142 -1.2259,0.3611 -1.6532,-0.1166 -0.7744,1.2852 -4.1409,4.5394 -8.414,8.0695 -3.4935,2.8879 -6.6929,5.2146 -8.5132,6.25 0.3446,0.9093 -0.2793,2.325 -1.5575,3.3813 -1.4566,1.2034 -3.2116,1.4844 -3.9199,0.6273 -0.7083,-0.857 -0.1009,-2.5268 1.3557,-3.731 1.125,-0.9293 2.4276,-1.3087 3.2881,-1.0389 1.313,-1.5732 4.261,-4.3419 7.8467,-7.3047 4.4098,-3.644 8.3497,-6.3944 9.64,-6.7842 z m -1.6941,-2.0318 c -0.3776,-0.5386 -0.2462,-1.2816 0.2924,-1.6593 0.5395,-0.3767 1.2817,-0.2462 1.6593,0.2933 0.3776,0.5386 0.2462,1.2816 -0.2924,1.6593 -0.5394,0.3767 -1.2816,0.2462 -1.6593,-0.2933 z m -1.715,-2.6921 c -0.3289,-0.5691 -0.134,-1.2982 0.436,-1.6271 0.5699,-0.3289 1.2982,-0.134 1.6271,0.4359 0.3297,0.5699 0.134,1.2991 -0.436,1.628 -0.5699,0.3289 -1.2982,0.1331 -1.6271,-0.4368 z m -1.4739,-2.8305 c -0.2785,-0.5969 -0.0201,-1.3052 0.576,-1.5836 0.5969,-0.2776 1.3051,-0.02 1.5836,0.576 0.2775,0.5969 0.02,1.3052 -0.576,1.5836 -0.5969,0.2785 -1.3052,0.02 -1.5836,-0.576 z m -1.2843,-3.5048 c 0.0548,-0.4281 0.341,-0.8136 0.7752,-0.9711 0.6178,-0.2253 1.3017,0.0931 1.5262,0.7118 0.2254,0.6186 -0.0931,1.3017 -0.7117,1.527 -0.6056,0.2211 -1.2748,-0.0817 -1.5132,-0.6752 -1.1659,0.9424 -5.4434,2.8488 -10.6659,4.7056 -4.2722,1.5175 -8.0738,2.6104 -10.1377,2.9602 0.0122,0.9736 -1.058,2.09 -2.6199,2.6451 -1.7811,0.6326 -3.5266,0.2967 -3.8981,-0.7509 -0.3724,-1.0468 0.7683,-2.4094 2.5494,-3.0419 1.3748,-0.489 2.7287,-0.3994 3.4448,0.1479 1.7724,-1.0294 5.4896,-2.6225 9.8724,-4.1809 5.3895,-1.916 10.0333,-3.1533 11.3785,-3.0776 z m -0.8971,-2.4885 c -0.1706,-0.6352 0.2071,-1.2887 0.8422,-1.4592 0.6361,-0.1706 1.2887,0.2071 1.4592,0.8422 0.1706,0.6361 -0.2062,1.2887 -0.8422,1.4592 -0.6352,0.1706 -1.2887,-0.2062 -1.4592,-0.8422 z m -0.6909,-3.1159 c -0.114,-0.6483 0.3185,-1.2661 0.9667,-1.38 0.6482,-0.1149 1.266,0.3176 1.38,0.9658 0.114,0.6482 -0.3185,1.266 -0.9667,1.38 -0.6474,0.1149 -1.2651,-0.3185 -1.38,-0.9658 z m -0.4168,-3.1646 c -0.0574,-0.6561 0.4281,-1.2339 1.0833,-1.2913 0.6552,-0.0566 1.233,0.4281 1.2904,1.0833 0.0574,0.6552 -0.4272,1.233 -1.0824,1.2904 -0.6561,0.0574 -1.2339,-0.4272 -1.2913,-1.0824 z m -0.008,-3.7328 c 0.1975,-0.3846 0.5986,-0.6474 1.0607,-0.6474 0.6578,0 1.1911,0.5334 1.1911,1.1912 0,0.6578 -0.5333,1.1912 -1.1911,1.1912 -0.6457,0 -1.1704,-0.5125 -1.1912,-1.1521 -1.4183,0.4864 -6.09,0.8153 -11.6326,0.7736 -4.5333,-0.034 -8.4793,-0.3081 -10.5389,-0.6848 -0.321,0.918 -1.708,1.601 -3.3664,1.5888 -1.8899,-0.0139 -3.4152,-0.9267 -3.4065,-2.0387 0.009,-1.1111 1.547,-2.0004 3.4369,-1.9864 1.4592,0.0113 2.7,0.5577 3.1864,1.3173 2.0169,-0.3611 6.0551,-0.5873 10.7068,-0.5525 5.7201,0.0435 10.5066,0.469 11.7448,0.9998 z m 0.008,-2.6452 c 0.0574,-0.6552 0.6352,-1.1398 1.2913,-1.0824 0.6552,0.0565 1.1398,0.6343 1.0824,1.2904 -0.0574,0.6552 -0.6352,1.1398 -1.2904,1.0824 -0.6552,-0.0566 -1.1407,-0.6343 -1.0833,-1.2904 z m 0.4168,-3.1646 c 0.1149,-0.6482 0.7326,-1.0807 1.38,-0.9658 0.6482,0.114 1.0807,0.7317 0.9667,1.38 -0.114,0.6473 -0.7318,1.0807 -1.38,0.9658 -0.6482,-0.114 -1.0807,-0.7318 -0.9667,-1.38 z m 0.6909,-3.1159 c 0.1705,-0.636 0.824,-1.0128 1.4592,-0.8423 0.636,0.1697 1.0128,0.8232 0.8422,1.4592 -0.1705,0.6352 -0.8231,1.012 -1.4592,0.8423 -0.6351,-0.1705 -1.0128,-0.824 -0.8422,-1.4592 z m 1.2695,-3.5109 c 0.3176,-0.2932 0.7839,-0.4037 1.2173,-0.2454 0.6186,0.2254 0.9371,0.9084 0.7117,1.5271 -0.2245,0.6186 -0.9084,0.9371 -1.5262,0.7117 -0.6064,-0.2201 -0.924,-0.8805 -0.7256,-1.4896 -1.5001,-0.0279 -6.003,-1.3165 -11.195,-3.2516 -4.2479,-1.5828 -7.8623,-3.1899 -9.6687,-4.2479 -0.616,0.7526 -2.1535,0.9205 -3.7075,0.341 -1.7707,-0.6595 -2.8914,-2.0386 -2.5034,-3.0802 0.3881,-1.0415 2.1379,-1.3513 3.9086,-0.6917 1.3669,0.5099 2.3467,1.4479 2.5433,2.3284 2.0196,0.3498 5.8916,1.5184 10.25,3.142 5.3608,1.9969 9.714,4.033 10.6955,4.9562 z m 0.9119,-2.4824 c 0.2784,-0.5961 0.9867,-0.8545 1.5836,-0.5761 0.596,0.2785 0.8535,0.9867 0.576,1.5836 -0.2785,0.5961 -0.9867,0.8536 -1.5836,0.5761 -0.5961,-0.2785 -0.8545,-0.9868 -0.576,-1.5836 z m 1.4739,-2.8314 c 0.3289,-0.5699 1.0572,-0.7648 1.6271,-0.4359 0.57,0.3289 0.7657,1.058 0.436,1.628 -0.3289,0.5699 -1.0572,0.7648 -1.6271,0.4359 -0.57,-0.3289 -0.7649,-1.0581 -0.436,-1.628 z m 1.715,-2.6913 c 0.3777,-0.5394 1.1199,-0.67 1.6593,-0.2932 0.5386,0.3776 0.67,1.1207 0.2924,1.6593 -0.3776,0.5395 -1.1198,0.67 -1.6593,0.2924 -0.5386,-0.3768 -0.67,-1.1199 -0.2924,-1.6585 z m 2.3928,-2.8653 c 0.3986,-0.167 0.8745,-0.1113 1.2286,0.1862 0.5038,0.4229 0.57,1.1738 0.1471,1.6785 -0.4229,0.5038 -1.1747,0.569 -1.6785,0.1462 -0.4942,-0.4142 -0.5673,-1.1434 -0.1722,-1.6472 -1.3992,-0.5394 -5.1885,-3.2899 -9.4077,-6.8852 -3.4509,-2.9401 -6.2971,-5.6862 -7.6327,-7.2985 -0.8362,0.4968 -2.3389,0.1279 -3.6005,-0.9476 -1.4383,-1.226 -2.0204,-2.9044 -1.2991,-3.751 0.7213,-0.8458 2.4711,-0.5386 3.9094,0.6873 1.1112,0.9467 1.7098,2.1632 1.5941,3.0576 1.7776,1.0198 5.0162,3.4422 8.5567,6.4589 4.3532,3.7093 7.7466,7.1115 8.3548,8.3148 z m 1.7063,-2.0204 c 0.4656,-0.4655 1.2199,-0.4655 1.6855,0 0.4646,0.4655 0.4646,1.2191 0,1.6846 -0.4656,0.4655 -1.2199,0.4655 -1.6855,0 -0.4646,-0.4655 -0.4646,-1.2191 0,-1.6846 z m 2.3537,-2.157 c 0.5038,-0.4229 1.2556,-0.3567 1.6785,0.1471 0.4228,0.5046 0.3567,1.2555 -0.1471,1.6784 -0.5038,0.4229 -1.2556,0.3576 -1.6784,-0.147 -0.4229,-0.5038 -0.3568,-1.2547 0.147,-1.6785 z m 2.532,-1.943 c 0.5395,-0.3767 1.2817,-0.2462 1.6594,0.2933 0.3776,0.5386 0.2462,1.2816 -0.2924,1.6584 -0.5395,0.3776 -1.2817,0.2471 -1.6593,-0.2924 -0.3776,-0.5386 -0.2463,-1.2816 0.2923,-1.6593 z m 3.229,-1.8733 c 0.4316,-0.0209 0.8597,0.1949 1.0903,0.5951 0.3289,0.5691 0.134,1.2983 -0.4359,1.6272 -0.57,0.3289 -1.2982,0.134 -1.6271,-0.436 -0.322,-0.5586 -0.141,-1.2695 0.4028,-1.6079 -1.1303,-0.985 -3.7519,-4.8657 -6.4867,-9.687 -2.2371,-3.9425 -3.9721,-7.497 -4.6769,-9.4686 -0.9554,0.1801 -2.2405,-0.6796 -3.0584,-2.1214 -0.9328,-1.6436 -0.9049,-3.4213 0.0618,-3.9695 0.9666,-0.5481 2.5068,0.3394 3.4395,1.983 0.7196,1.2687 0.8667,2.6173 0.4516,3.4187 1.3217,1.5654 3.5362,4.9492 5.8315,8.9953 2.8218,4.9753 4.8474,9.3328 5.0075,10.6711 z m 2.2945,-1.3148 c 0.5961,-0.2784 1.3052,-0.0208 1.5828,0.576 0.2784,0.5961 0.02,1.3052 -0.576,1.5828 -0.5961,0.2784 -1.3052,0.02 -1.5828,-0.576 -0.2784,-0.5961 -0.0209,-1.3052 0.576,-1.5828 z m 2.9489,-1.2216 c 0.6177,-0.2254 1.3017,0.0931 1.527,0.7117 0.2245,0.6187 -0.094,1.3017 -0.7126,1.5271 -0.6178,0.2254 -1.3017,-0.094 -1.5262,-0.7118 -0.2254,-0.6186 0.0931,-1.3025 0.7118,-1.527 z m 3.0436,-0.9597 c 0.6361,-0.1706 1.2895,0.2062 1.4592,0.8422 0.1706,0.6352 -0.2062,1.2887 -0.8423,1.4592 -0.6351,0.1697 -1.2886,-0.2071 -1.4591,-0.8423 -0.1706,-0.636 0.207,-1.2895 0.8422,-1.4591 z m 3.6754,-0.6561 c 0.4124,0.1279 0.7413,0.4768 0.8214,0.931 0.114,0.6482 -0.3185,1.266 -0.9667,1.38 -0.6482,0.1149 -1.266,-0.3176 -1.38,-0.9658 -0.1114,-0.6352 0.301,-1.2417 0.9284,-1.3722 -0.7257,-1.313 -1.8612,-5.8567 -2.7818,-11.3219 -0.7535,-4.4698 -1.1694,-8.4036 -1.1563,-10.4971 -0.9598,-0.1575 -1.8734,-1.4053 -2.1492,-3.0402 -0.3141,-1.8638 0.3202,-3.524 1.4165,-3.7084 1.0955,-0.1845 2.2388,1.1755 2.5529,3.0393 0.2428,1.4392 -0.08,2.7565 -0.7439,3.3673 0.7056,1.923 1.6297,5.8603 2.4032,10.4475 0.9511,5.6392 1.3635,10.4275 1.0555,11.7405 z m 2.606,-0.4516 c 0.6552,-0.0574 1.2329,0.4272 1.2904,1.0833 0.0574,0.6552 -0.4273,1.2329 -1.0833,1.2904 -0.6552,0.0574 -1.233,-0.4273 -1.2904,-1.0833 -0.0574,-0.6552 0.4272,-1.233 1.0833,-1.2904 z m 3.1881,-0.1392 c 0.6587,0 1.1921,0.5334 1.1921,1.1912 0,0.6578 -0.5334,1.1912 -1.1921,1.1912 -0.6578,0 -1.1912,-0.5334 -1.1912,-1.1912 0,-0.6578 0.5334,-1.1912 1.1912,-1.1912 z m 18.8659,-28.2101 c -0.8388,2.5364 -1.5828,5.0171 -2.0814,7.3499 -0.5081,2.3772 -0.7596,4.5942 -0.5916,6.5476 0.067,0.784 0.2027,1.5271 0.3837,2.2293 0.1505,0.5838 0.3324,1.1433 0.5342,1.6793 0.4995,-0.281 0.9989,-0.5934 1.4897,-0.9441 0.5925,-0.4237 1.1746,-0.9058 1.7263,-1.46 1.3956,-1.3992 2.6373,-3.2778 3.7832,-5.4487 1.1216,-2.1222 2.1544,-4.5289 3.1516,-7.041 -0.3846,-0.3785 -0.6361,-0.9232 -0.7326,-1.5531 -0.1027,-0.6683 -0.0331,-1.4409 0.2375,-2.2101 l 0.02,-0.0566 c 0.3324,-0.9127 0.8884,-1.6515 1.5166,-2.1074 0.6474,-0.4681 1.3766,-0.6456 2.0431,-0.4281 l 0.0591,0.0209 c 0.6831,0.248 1.1486,0.8657 1.3487,1.6628 0.1871,0.7474 0.1401,1.6619 -0.1853,2.5677 l -0.008,0.0217 c -0.2984,0.8214 -0.7805,1.5036 -1.3321,1.9639 -0.5082,0.422 -1.0807,0.6621 -1.6402,0.6639 -1.018,2.5634 -2.0769,5.0258 -3.2385,7.2185 -1.1999,2.2658 -2.5129,4.2409 -4.0043,5.7366 -0.6256,0.6274 -1.2791,1.1686 -1.9421,1.6402 -0.5726,0.4081 -1.1547,0.7657 -1.735,1.0868 0.3767,0.8266 0.7744,1.5853 1.1424,2.2867 l 0.004,0.0078 c 0.3602,0.6856 0.6935,1.3208 0.958,1.9186 0.2706,0.6134 0.4707,1.1903 0.5525,1.7428 0.2219,1.5019 -0.3933,2.6626 -1.427,3.6519 -0.9884,0.9467 -2.3519,1.722 -3.7145,2.4955 l -0.0592,0.0331 c -0.1784,0.0835 -0.3759,0.0852 -0.5473,0.0235 -0.1723,-0.0627 -0.3219,-0.1923 -0.4055,-0.3716 l -0.0313,-0.0679 v -0.0121 c -0.0522,-0.1575 -0.0461,-0.322 0.007,-0.469 0.06,-0.1662 0.1818,-0.3107 0.3515,-0.3959 1.2095,-0.6865 2.4163,-1.3739 3.2664,-2.151 0.8005,-0.7291 1.2843,-1.5461 1.139,-2.5294 -0.1262,-0.8518 -0.6926,-1.9316 -1.3574,-3.1977 l -0.004,-0.0095 c -0.3707,-0.704 -0.7701,-1.4636 -1.1547,-2.3032 -0.3724,0.1766 -0.7317,0.3367 -1.0763,0.4855 -0.4037,0.1732 -0.8597,0.3602 -1.2947,0.5395 -0.67,0.2741 -1.2913,0.529 -1.8299,0.79 -0.5186,0.2524 -0.9545,0.5073 -1.2712,0.7884 -0.7457,0.6621 -0.8971,1.6036 -0.7518,2.6834 0.1549,1.1477 0.643,2.4572 1.1294,3.7667 l 0.0148,0.0418 c 0.0574,0.1888 0.0331,0.3837 -0.0531,0.5456 -0.0853,0.1618 -0.234,0.2906 -0.4237,0.3489 -0.188,0.0565 -0.382,0.033 -0.5421,-0.0522 -0.1619,-0.0853 -0.2915,-0.2315 -0.3507,-0.4177 -0.5447,-1.4661 -1.0867,-2.9314 -1.2329,-4.2836 -0.154,-1.4165 0.1227,-2.6973 1.2573,-3.7049 0.4168,-0.3698 0.9406,-0.6839 1.5436,-0.9798 0.589,-0.2897 1.2512,-0.5612 1.9647,-0.8536 l 0.01,-0.0043 c 0.7361,-0.3019 1.5296,-0.6274 2.3458,-1.0163 -0.2384,-0.6169 -0.4542,-1.266 -0.6317,-1.9482 -0.2045,-0.7918 -0.3585,-1.6262 -0.4342,-2.5051 -0.1801,-2.0865 0.0792,-4.4201 0.6065,-6.9043 0.5081,-2.3937 1.2695,-4.9371 2.1274,-7.5352 -0.4333,-0.3576 -0.7222,-0.911 -0.8414,-1.5628 -0.1305,-0.71 -0.0618,-1.5462 0.2384,-2.3719 0.3324,-0.9127 0.8884,-1.6515 1.5175,-2.1074 0.6648,-0.4821 1.4192,-0.6569 2.1013,-0.4081 0.6831,0.248 1.1486,0.8658 1.3487,1.6637 0.1888,0.7526 0.1401,1.6758 -0.1923,2.5894 -0.2845,0.7814 -0.7335,1.4357 -1.2521,1.8934 -0.4759,0.4211 -1.0163,0.6796 -1.5496,0.7265 z m 21.0237,10.3596 c -1.6584,2.1014 -3.2073,4.1783 -4.4707,6.1944 -1.2895,2.0587 -2.2831,4.0556 -2.793,5.9499 -0.2054,0.7596 -0.3324,1.5035 -0.402,2.2257 -0.0592,0.6004 -0.0783,1.1895 -0.0722,1.762 0.5664,-0.094 1.1433,-0.2158 1.7219,-0.3768 0.7039,-0.1957 1.4157,-0.4507 2.1231,-0.7813 1.789,-0.8371 3.5979,-2.1788 5.4182,-3.8259 1.7803,-1.6115 3.5727,-3.5188 5.3686,-5.5374 -0.2323,-0.4864 -0.2819,-1.0851 -0.1575,-1.7098 0.134,-0.677 0.4742,-1.3931 1.0068,-2.0309 l 0.0113,-0.0139 c 0.6247,-0.7439 1.4,-1.2477 2.1465,-1.4609 0.7901,-0.2254 1.5567,-0.1314 2.1136,0.335 l 0.0174,0.0148 c 0.5446,0.4698 0.7639,1.2025 0.6813,2.0099 -0.081,0.7736 -0.4429,1.6245 -1.0668,2.3676 -0.5621,0.67 -1.2469,1.146 -1.9238,1.3896 -0.6213,0.2236 -1.2426,0.2532 -1.769,0.0626 -1.8377,2.0657 -3.6762,4.0191 -5.5122,5.6776 -1.9012,1.7158 -3.8093,3.1228 -5.7253,4.0199 -0.8031,0.3759 -1.601,0.6604 -2.385,0.8771 -0.6796,0.1879 -1.3496,0.3254 -2.0022,0.4272 0.0714,0.904 0.1871,1.7585 0.2933,2.5486 l 0.004,0.0278 c 0.1027,0.7587 0.1967,1.4618 0.2402,2.1022 0.0444,0.6683 0.0339,1.2782 -0.0783,1.8264 -0.3054,1.4887 -1.28,2.3702 -2.5886,2.9453 -1.2504,0.5508 -2.7983,0.8136 -4.3454,1.0746 l -0.0644,0.0105 c -0.1966,0.0174 -0.3837,-0.0479 -0.5238,-0.1654 -0.1409,-0.1174 -0.2367,-0.2897 -0.2541,-0.4881 -0.0182,-0.1966 0.0462,-0.3837 0.1645,-0.5238 0.114,-0.1349 0.2767,-0.228 0.4629,-0.2515 1.3739,-0.2314 2.7461,-0.4655 3.8085,-0.9032 1.0015,-0.4133 1.7359,-1.0145 1.9351,-1.9873 0.0844,-0.415 0.0879,-0.9206 0.047,-1.4966 -0.0435,-0.5995 -0.1331,-1.2625 -0.2297,-1.9786 l -0.002,-0.009 c -0.1071,-0.7953 -0.2237,-1.6515 -0.2967,-2.5556 -0.4012,0.0366 -0.7945,0.0644 -1.1773,0.087 -0.4707,0.0261 -0.9458,0.0462 -1.4009,0.0644 -0.7239,0.0287 -1.3948,0.0557 -1.9882,0.1166 -0.5717,0.0592 -1.0685,0.1505 -1.4644,0.3072 -0.9267,0.3663 -1.3913,1.199 -1.6237,2.2623 -0.2471,1.1355 -0.2375,2.532 -0.2271,3.9277 l -8e-4,0.0417 c -0.0105,0.1976 -0.1001,0.3733 -0.2367,0.496 -0.1357,0.1236 -0.3193,0.194 -0.5168,0.1836 -0.1967,-0.0113 -0.3707,-0.1001 -0.4925,-0.2341 -0.1218,-0.1348 -0.1932,-0.3149 -0.1854,-0.5098 -0.0113,-1.5645 -0.02,-3.1281 0.3046,-4.4498 0.3402,-1.3852 1.038,-2.4946 2.4485,-3.0524 0.5177,-0.2045 1.1181,-0.3211 1.7863,-0.3933 0.6448,-0.0696 1.3635,-0.0983 2.1379,-0.1296 l 0.0139,-9e-4 c 0.7936,-0.0313 1.6498,-0.0661 2.5486,-0.1531 -0.0122,-0.6605 0.007,-1.3435 0.0731,-2.0457 0.0774,-0.8135 0.2193,-1.6497 0.4481,-2.5016 0.5456,-2.023 1.5871,-4.1269 2.9314,-6.2805 1.2965,-2.0752 2.8818,-4.2044 4.5768,-6.3527 -0.2854,-0.4846 -0.3672,-1.1033 -0.2567,-1.7567 0.1201,-0.7118 0.4708,-1.474 1.0355,-2.1484 0.6247,-0.7439 1.4,-1.2486 2.1474,-1.4618 0.7901,-0.2262 1.5575,-0.1313 2.1144,0.335 0.5569,0.4673 0.7822,1.2078 0.6978,2.0248 -0.08,0.7735 -0.4428,1.6245 -1.0658,2.3676 -0.5352,0.6378 -1.1817,1.0998 -1.8247,1.3521 -0.5917,0.2332 -1.1877,0.2907 -1.7054,0.1514 z m 16.2137,16.9255 c -2.2771,1.407 -4.4428,2.8305 -6.3196,4.2923 -1.916,1.494 -3.5336,3.0306 -4.6612,4.636 -0.4525,0.6448 -0.8258,1.3 -1.139,1.9543 -0.2576,0.5386 -0.4777,1.0859 -0.6691,1.6306 0.5603,0.1044 1.1433,0.1871 1.7454,0.234 0.7309,0.0566 1.4879,0.0609 2.2641,-0.008 1.9647,-0.174 4.1234,-0.8162 6.3997,-1.7428 2.2257,-0.9058 4.562,-2.0848 6.9391,-3.3665 -0.0522,-0.536 0.1062,-1.1146 0.4368,-1.6602 0.3611,-0.5943 0.9302,-1.1546 1.6541,-1.5723 0.8432,-0.4855 1.7429,-0.6943 2.5173,-0.6395 0.8196,0.0583 1.5088,0.4098 1.8716,1.0398 0.3628,0.6282 0.3228,1.4008 -0.0357,2.1387 -0.3402,0.6996 -0.971,1.3757 -1.8116,1.8603 l -0.009,0.005 c -0.7553,0.4342 -1.5575,0.6457 -2.2728,0.6431 -0.6604,-0.003 -1.2538,-0.1871 -1.6837,-0.5465 -2.4311,1.3104 -4.8256,2.5181 -7.1219,3.4492 -2.3745,0.9632 -4.6481,1.6332 -6.7555,1.8202 -0.8858,0.0784 -1.7333,0.0731 -2.5408,0.009 -0.7004,-0.0556 -1.3774,-0.1557 -2.0282,-0.2836 -0.2376,0.857 -0.4211,1.7002 -0.5917,2.4798 l -0.004,0.0157 c -0.1619,0.7483 -0.3142,1.4426 -0.4995,2.0848 -0.1871,0.6465 -0.4055,1.2164 -0.6969,1.6906 -0.7953,1.2939 -2.0135,1.789 -3.4405,1.8812 -1.3608,0.0888 -2.9036,-0.1932 -4.4463,-0.476 l -0.0678,-0.0121 c -0.1915,-0.0514 -0.3446,-0.1767 -0.4368,-0.335 -0.0914,-0.161 -0.1227,-0.355 -0.0723,-0.5456 0.0514,-0.1905 0.1758,-0.3437 0.335,-0.4359 0.1593,-0.0914 0.3516,-0.1227 0.5404,-0.074 1.3626,0.2506 2.7234,0.4977 3.8685,0.4499 1.0824,-0.0461 1.9769,-0.3603 2.4972,-1.206 0.2219,-0.3611 0.3977,-0.8353 0.556,-1.3896 0.1619,-0.5708 0.3055,-1.2286 0.4603,-1.9377 0.1706,-0.784 0.3559,-1.6306 0.5969,-2.5129 -0.8762,-0.2289 -1.701,-0.4925 -2.4659,-0.737 l -0.004,-9e-4 c -0.6874,-0.2193 -1.3226,-0.4229 -1.9117,-0.5708 -0.5603,-0.1401 -1.0589,-0.2253 -1.4809,-0.214 -0.9972,0.0278 -1.7176,0.6508 -2.2997,1.5714 -0.6178,0.9763 -1.0868,2.2945 -1.5558,3.6127 l -0.0165,0.0409 c -0.0775,0.1827 -0.2228,0.3167 -0.3924,0.3846 -0.1697,0.0687 -0.3672,0.0714 -0.5482,-0.005 -0.181,-0.0775 -0.315,-0.221 -0.3829,-0.3898 -0.0661,-0.1645 -0.0731,-0.3533 -0.004,-0.5299 0.5255,-1.4749 1.0519,-2.9506 1.8133,-4.0878 0.7935,-1.1851 1.829,-1.9891 3.3447,-2.03 0.5595,-0.0157 1.1616,0.08 1.8125,0.2401 0.6273,0.154 1.3139,0.3733 2.0543,0.61 l 0.004,0.002 c 0.7561,0.2411 1.5758,0.5021 2.4554,0.7301 0.2132,-0.6248 0.4656,-1.26 0.7684,-1.8969 0.3506,-0.7379 0.7709,-1.4757 1.2782,-2.1988 1.2025,-1.7132 2.9018,-3.3343 4.9031,-4.8987 1.9325,-1.5106 4.1478,-2.968 6.4719,-4.4046 -0.1018,-0.5525 0.0322,-1.1624 0.3602,-1.7393 0.3559,-0.6274 0.9458,-1.2234 1.708,-1.6637 0.8423,-0.4855 1.7429,-0.6943 2.5173,-0.6395 0.8188,0.0583 1.5088,0.4089 1.8716,1.0389 0.3628,0.63 0.3228,1.4018 -0.0357,2.1396 -0.3402,0.6996 -0.9719,1.3757 -1.8133,1.8612 -0.7204,0.4159 -1.4853,0.6291 -2.1761,0.6465 -0.6344,0.0157 -1.2139,-0.1331 -1.6533,-0.4412 z m -51.6683,104.8551 c -0.0792,-2.673 -0.2289,-5.259 -0.5578,-7.6196 -0.335,-2.4076 -0.8579,-4.5768 -1.6836,-6.3545 -0.3289,-0.7091 -0.7109,-1.3608 -1.1242,-1.9629 -0.3402,-0.496 -0.7022,-0.9598 -1.0755,-1.3948 -0.3724,0.435 -0.7352,0.8988 -1.0755,1.3948 -0.4133,0.6029 -0.7961,1.2547 -1.1241,1.9629 -0.8327,1.7925 -1.3574,3.9826 -1.6924,6.4137 -0.3281,2.3832 -0.4751,4.9962 -0.5534,7.6935 0.4907,0.2236 0.9136,0.6509 1.2199,1.2095 0.3341,0.6091 0.5342,1.3817 0.5342,2.2188 0,0.971 -0.2688,1.8551 -0.7048,2.499 -0.4611,0.6813 -1.1102,1.1033 -1.8359,1.1033 -0.7265,0 -1.3757,-0.422 -1.8368,-1.1033 -0.4351,-0.6439 -0.7048,-1.528 -0.7048,-2.499 0,-0.8745 0.2193,-1.6785 0.5804,-2.2997 0.3332,-0.5717 0.79,-0.9937 1.3156,-1.1869 0.0809,-2.7608 0.2323,-5.4382 0.5734,-7.8902 0.3532,-2.539 0.911,-4.8439 1.8011,-6.759 0.3733,-0.804 0.8023,-1.5358 1.2643,-2.2067 0.4003,-0.5812 0.8249,-1.1172 1.2591,-1.6149 -0.2828,-0.2871 -0.5656,-0.5612 -0.8432,-0.8231 -0.3402,-0.3211 -0.6882,-0.6378 -1.0206,-0.9397 -0.5708,-0.5204 -1.1007,-1.0024 -1.5549,-1.4758 -0.4647,-0.4837 -0.8501,-0.958 -1.1155,-1.4496 -0.7231,-1.3356 -0.5421,-2.6373 0.0905,-3.919 0.6038,-1.2242 1.6219,-2.4206 2.6408,-3.617 l 0.0383,-0.047 c 0.1409,-0.141 0.3254,-0.2115 0.5098,-0.2115 0.1828,-0.002 0.3672,0.0696 0.5073,0.2089 0.1419,0.14 0.2123,0.3245 0.2123,0.509 0,0.1844 -0.0704,0.3689 -0.2105,0.509 -0.898,1.0537 -1.7907,2.1083 -2.3198,3.1202 -0.502,0.9606 -0.6778,1.8934 -0.2044,2.7679 0.201,0.3724 0.5238,0.7613 0.924,1.1746 0.4125,0.4255 0.911,0.8788 1.4488,1.3678 l 0.003,0.004 c 0.5917,0.5386 1.2304,1.1199 1.8734,1.7707 0.6404,-0.6482 1.2773,-1.2277 1.8673,-1.7655 l 0.0104,-0.008 c 0.5369,-0.4899 1.0355,-0.9432 1.4479,-1.3687 0.4011,-0.4133 0.7222,-0.8022 0.9241,-1.1746 0.9675,-1.789 -0.7962,-3.8607 -2.5599,-5.9334 -0.0139,-0.013 -0.0392,-0.0435 -0.047,-0.06 -0.1044,-0.154 -0.1427,-0.3341 -0.1183,-0.5038 0.0261,-0.1818 0.1209,-0.3541 0.2784,-0.4725 l 0.0278,-0.0191 c 0.1514,-0.1036 0.3307,-0.141 0.5003,-0.1183 0.181,0.0243 0.3533,0.1174 0.4725,0.274 1.012,1.1904 2.0222,2.3807 2.6225,3.6015 0.6309,1.279 0.8093,2.5781 0.0879,3.9111 -0.5255,0.9711 -1.507,1.8656 -2.659,2.914 l -0.0114,0.0114 c -0.3332,0.3019 -0.6813,0.6186 -1.0215,0.9397 -0.2775,0.2619 -0.5595,0.536 -0.8422,0.8231 0.4341,0.4977 0.8588,1.0337 1.259,1.6149 0.462,0.6718 0.891,1.4035 1.2643,2.2067 0.8832,1.8994 1.4383,4.1809 1.7924,6.6946 0.3411,2.425 0.4951,5.0737 0.5769,7.8076 0.5299,0.1879 0.9902,0.6091 1.3261,1.1816 0.3663,0.623 0.5882,1.4313 0.5882,2.3102 0,0.971 -0.2698,1.855 -0.7057,2.4989 -0.4612,0.6813 -1.1094,1.1033 -1.8359,1.1033 -0.7266,0 -1.3757,-0.422 -1.8368,-1.1033 -0.4351,-0.6439 -0.7048,-1.5279 -0.7048,-2.4989 0,-0.831 0.1983,-1.5993 0.5299,-2.2075 0.3028,-0.5578 0.7222,-0.9859 1.2077,-1.2121 z m -23.3,-2.5442 c 0.8388,-2.5373 1.5828,-5.018 2.0813,-7.3508 0.5082,-2.3771 0.7596,-4.5942 0.5917,-6.5476 -0.067,-0.784 -0.2027,-1.5262 -0.3837,-2.2292 -0.1505,-0.5839 -0.3324,-1.1433 -0.5343,-1.6785 -0.4994,0.2811 -0.9989,0.5934 -1.4896,0.9432 -0.5934,0.4247 -1.1747,0.9067 -1.7263,1.4601 -1.3957,1.3991 -2.6373,3.2777 -3.7841,5.4478 -1.1208,2.1231 -2.1536,4.5289 -3.1507,7.0427 0.3846,0.3776 0.636,0.9232 0.7326,1.5523 0.1053,0.6848 0.0296,1.4792 -0.2575,2.2666 -0.3324,0.9137 -0.8884,1.6524 -1.5175,2.1075 -0.6465,0.469 -1.3757,0.6465 -2.0422,0.4281 l -0.0592,-0.0201 c -0.683,-0.2479 -1.1485,-0.8666 -1.3486,-1.6636 -0.1889,-0.7535 -0.1393,-1.6767 0.1923,-2.5895 0.2993,-0.8214 0.7813,-1.5027 1.333,-1.963 0.5081,-0.4228 1.0807,-0.663 1.6401,-0.6639 1.0181,-2.5642 2.077,-5.0266 3.2377,-7.2193 1.2008,-2.2649 2.5129,-4.2401 4.0052,-5.7367 0.6256,-0.6265 1.2791,-1.1677 1.9421,-1.6402 0.5725,-0.4072 1.1546,-0.7665 1.7359,-1.0867 -0.3777,-0.8266 -0.7753,-1.5845 -1.1434,-2.2858 l -0.004,-0.008 c -0.3602,-0.6865 -0.6944,-1.3217 -0.958,-1.9186 -0.2715,-0.6143 -0.4707,-1.1911 -0.5525,-1.7437 -0.2219,-1.5018 0.3924,-2.6617 1.4261,-3.651 0.9867,-0.9467 2.3519,-1.7219 3.7154,-2.4963 l 0.0583,-0.0322 c 0.1792,-0.0836 0.3759,-0.087 0.5481,-0.0244 0.1732,0.0626 0.3229,0.1923 0.4064,0.3733 0.0835,0.1792 0.0861,0.375 0.0235,0.5473 -0.0592,0.1653 -0.181,0.3089 -0.3481,0.3941 -1.2129,0.6874 -2.4232,1.3774 -3.2699,2.151 -0.8005,0.7317 -1.2842,1.5479 -1.1389,2.5311 0.1261,0.851 0.6934,1.9326 1.3591,3.2003 0.201,0.382 0.4107,0.7814 0.6447,1.2469 0.1697,0.3359 0.342,0.69 0.5134,1.0642 0.8275,-0.3925 1.6263,-0.7205 2.3676,-1.0242 l 0.005,-0.003 c 0.6691,-0.2732 1.2895,-0.5281 1.8273,-0.7892 0.5185,-0.2514 0.9545,-0.5073 1.2712,-0.7883 0.7457,-0.6613 0.8971,-1.6028 0.7518,-2.6826 -0.1549,-1.1485 -0.643,-2.458 -1.1294,-3.7676 l -0.0148,-0.0417 c -0.0575,-0.1889 -0.0331,-0.3846 0.053,-0.5456 0.0871,-0.161 0.235,-0.2906 0.4238,-0.348 0.1879,-0.0575 0.3811,-0.0331 0.5429,0.0513 0.161,0.0853 0.2907,0.2314 0.3498,0.4194 0.5447,1.4653 1.0868,2.9305 1.233,4.2818 0.154,1.4166 -0.1227,2.6974 -1.2573,3.705 -0.4168,0.3698 -0.9406,0.6839 -1.5436,0.9797 -0.5891,0.2898 -1.2512,0.5613 -1.9656,0.8545 -0.3811,0.1549 -0.7822,0.3202 -1.2799,0.5351 -0.3551,0.1523 -0.7144,0.3132 -1.0746,0.4855 0.2384,0.6161 0.4542,1.2652 0.6317,1.9473 0.2053,0.7919 0.3585,1.6263 0.4342,2.5042 0.1792,2.0875 -0.0792,4.4211 -0.6065,6.9053 -0.5082,2.3937 -1.2695,4.9362 -2.1283,7.5352 0.4342,0.3585 0.723,0.911 0.8422,1.5636 0.1306,0.7091 0.0618,1.5453 -0.2384,2.3711 -0.3323,0.9136 -0.8884,1.6523 -1.5174,2.1074 -0.6657,0.482 -1.4192,0.6569 -2.1014,0.4089 -0.6839,-0.2488 -1.1494,-0.8675 -1.3487,-1.6645 -0.1888,-0.7535 -0.1392,-1.6767 0.1923,-2.5886 0.2846,-0.7814 0.7335,-1.4366 1.2521,-1.8942 0.476,-0.4203 1.0163,-0.6787 1.5497,-0.7257 z m -21.0237,-10.3605 c 1.6593,-2.1013 3.2072,-4.1783 4.4706,-6.1943 1.2895,-2.0587 2.2832,-4.0548 2.7931,-5.949 0.2045,-0.7596 0.3324,-1.5036 0.402,-2.2267 0.0583,-0.6003 0.0783,-1.1885 0.0722,-1.7619 -0.5656,0.0939 -1.1424,0.2158 -1.7219,0.3767 -0.704,0.1967 -1.4157,0.4507 -2.1231,0.7814 -1.789,0.8379 -3.598,2.1788 -5.4182,3.8259 -1.7803,1.6123 -3.5736,3.5196 -5.3687,5.5383 0.2324,0.4855 0.282,1.0841 0.1575,1.7098 -0.1348,0.6804 -0.4794,1.4017 -1.0171,2.043 l -0.0139,0.0174 c -0.6239,0.7361 -1.3922,1.2338 -2.1327,1.4444 -0.7901,0.2253 -1.5575,0.1314 -2.1144,-0.335 l -0.02,-0.0174 c -0.5421,-0.4673 -0.7613,-1.1999 -0.6778,-2.0074 0.08,-0.7726 0.442,-1.6236 1.065,-2.3667 l 0.006,-0.007 c 0.5612,-0.6665 1.2443,-1.1407 1.9186,-1.3834 0.6213,-0.2237 1.2425,-0.2532 1.7689,-0.0627 1.8377,-2.0656 3.6763,-4.0191 5.5122,-5.6766 1.9012,-1.7168 3.8085,-3.1237 5.7254,-4.02 0.8031,-0.3758 1.601,-0.6612 2.385,-0.877 0.6795,-0.188 1.3487,-0.3263 2.0021,-0.4281 -0.0322,-0.4003 -0.0722,-0.7927 -0.1166,-1.1738 -0.0591,-0.5012 -0.1192,-0.9484 -0.1766,-1.3748 l -0.004,-0.0278 c -0.208,-1.5384 -0.3837,-2.8505 -0.1627,-3.9286 0.3054,-1.4897 1.2791,-2.3702 2.5877,-2.9454 1.2504,-0.5499 2.7974,-0.8126 4.3436,-1.0737 l 0.0679,-0.0113 c 0.1958,-0.0165 0.382,0.0479 0.5229,0.1662 0.141,0.1175 0.2367,0.2897 0.2541,0.4881 0.0183,0.1958 -0.0461,0.3829 -0.1644,0.5238 -0.114,0.134 -0.2767,0.2271 -0.4629,0.2506 -1.3739,0.2315 -2.7461,0.4655 -3.8085,0.9041 -1.0015,0.4133 -1.7359,1.0137 -1.9352,1.9873 -0.1731,0.8423 -0.009,2.0535 0.1828,3.4735 l 0.003,0.0279 c 0.0609,0.4498 0.1245,0.918 0.1767,1.3652 0.0443,0.3785 0.0852,0.77 0.1183,1.1729 0.9014,-0.0844 1.7637,-0.1192 2.5625,-0.1514 l 0.013,-9e-4 c 0.7266,-0.0287 1.3975,-0.0557 1.9909,-0.1166 0.5716,-0.0591 1.0685,-0.1505 1.4644,-0.3071 0.9267,-0.3663 1.3913,-1.1982 1.6236,-2.2623 0.2471,-1.1346 0.2376,-2.532 0.228,-3.9277 v -0.0418 c 0.0104,-0.1984 0.1009,-0.3741 0.2367,-0.4968 0.1383,-0.1227 0.321,-0.1923 0.5177,-0.1819 0.1958,0.0105 0.3706,0.1001 0.4916,0.2332 0.1218,0.1349 0.1932,0.3159 0.1853,0.5108 0.0113,1.5636 0.02,3.128 -0.3045,4.4489 -0.3402,1.3852 -1.0389,2.4946 -2.4485,3.0523 -0.5177,0.2045 -1.1181,0.3211 -1.7864,0.3933 -0.6456,0.0696 -1.3634,0.0984 -2.1378,0.1297 l -0.0279,9e-4 c -0.7892,0.0322 -1.641,0.0661 -2.5346,0.1531 0.0121,0.6604 -0.007,1.3443 -0.0731,2.0456 -0.0775,0.8136 -0.2193,1.6498 -0.4481,2.5016 -0.5456,2.023 -1.5871,4.1279 -2.9315,6.2814 -1.2964,2.0743 -2.8818,4.2035 -4.5768,6.3518 0.2846,0.4847 0.3672,1.1033 0.2567,1.7577 -0.1201,0.7117 -0.4698,1.4739 -1.0354,2.1474 -0.6265,0.7457 -1.4009,1.2495 -2.1475,1.4627 -0.79,0.2245 -1.5575,0.1305 -2.1143,-0.3359 -0.5569,-0.4672 -0.7823,-1.2077 -0.6979,-2.0247 0.0801,-0.7736 0.4429,-1.6246 1.0659,-2.3676 0.5351,-0.637 1.1816,-1.0999 1.8246,-1.3522 0.5917,-0.2323 1.1878,-0.2897 1.7055,-0.1514 z M 133.173,173.6782 c 2.2771,-1.407 4.4428,-2.8296 6.3197,-4.2923 1.916,-1.494 3.5335,-3.0306 4.6612,-4.6359 0.4516,-0.6439 0.8257,-1.3 1.139,-1.9543 0.2575,-0.5386 0.4777,-1.0851 0.6691,-1.6306 -0.5604,-0.1044 -1.1433,-0.1871 -1.7455,-0.2341 -0.7309,-0.0565 -1.487,-0.0609 -2.264,0.008 -1.9656,0.1749 -4.1243,0.8171 -6.3997,1.7429 -2.2266,0.9067 -4.562,2.0857 -6.9392,3.3673 0.0514,0.5352 -0.1061,1.1147 -0.4376,1.6602 -0.3603,0.5926 -0.9293,1.1529 -1.6541,1.5715 l -0.0766,0.0443 c -0.8188,0.4534 -1.6889,0.6491 -2.4398,0.5952 -0.8197,-0.0583 -1.5088,-0.4098 -1.8716,-1.0389 l -0.0444,-0.0827 c -0.315,-0.6134 -0.2636,-1.3504 0.08,-2.0561 0.3368,-0.6943 0.9615,-1.3652 1.7934,-1.8498 l 0.0182,-0.0114 c 0.7579,-0.4376 1.5636,-0.6499 2.2815,-0.6482 0.6613,0.003 1.2556,0.1871 1.6854,0.5456 2.4302,-1.3104 4.8248,-2.5173 7.121,-3.4483 2.3746,-0.9632 4.6482,-1.6332 6.7556,-1.8194 0.8849,-0.0792 1.7324,-0.074 2.5407,-0.01 0.7013,0.0557 1.3783,0.1558 2.0283,0.2837 0.2384,-0.8614 0.4237,-1.7081 0.5943,-2.4912 l 0.002,-0.003 c 0.1618,-0.7492 0.3141,-1.4444 0.4995,-2.0848 0.187,-0.6474 0.4054,-1.2182 0.6969,-1.6907 0.7953,-1.2947 2.0135,-1.7889 3.4405,-1.882 1.3626,-0.0897 2.9079,0.194 4.4523,0.4777 l 0.0618,0.0113 c 0.1914,0.0513 0.3446,0.1757 0.4368,0.3341 0.0914,0.161 0.1236,0.355 0.0722,0.5464 -0.0513,0.1906 -0.1766,0.3437 -0.3358,0.436 -0.1584,0.0904 -0.3507,0.1226 -0.5395,0.073 -1.3635,-0.2506 -2.7243,-0.4968 -3.8694,-0.4489 -1.0807,0.0452 -1.976,0.3593 -2.4964,1.2059 -0.2227,0.3611 -0.3985,0.8354 -0.556,1.3887 -0.1627,0.5708 -0.3063,1.2286 -0.4603,1.9378 l -0.005,0.0235 c -0.1697,0.7787 -0.3533,1.6167 -0.5925,2.4894 0.3924,0.1027 0.7709,0.2106 1.1346,0.3193 0.4142,0.1244 0.8875,0.2758 1.3391,0.4203 0.6839,0.2184 1.3191,0.4203 1.909,0.569 0.5604,0.141 1.059,0.2254 1.481,0.2141 0.9963,-0.0279 1.7176,-0.6509 2.2997,-1.5714 0.6178,-0.9763 1.0868,-2.2945 1.5558,-3.6119 l 0.0165,-0.0418 c 0.0774,-0.1818 0.2219,-0.3158 0.3915,-0.3845 0.1706,-0.0679 0.3672,-0.0714 0.5491,0.006 0.1801,0.0766 0.3132,0.2193 0.382,0.3872 0.0678,0.1654 0.0739,0.3542 0.005,0.5317 -0.5256,1.4757 -1.052,2.9506 -1.8133,4.0878 -0.7936,1.1851 -1.829,1.9882 -3.3448,2.0308 -0.5594,0.0148 -1.1616,-0.0809 -1.8124,-0.241 -0.6274,-0.154 -1.3139,-0.3733 -2.0544,-0.6099 l -0.004,-9e-4 c -0.7561,-0.2419 -1.5749,-0.5029 -2.4555,-0.7309 -0.214,0.6247 -0.4646,1.2599 -0.7683,1.8969 -0.3498,0.7369 -0.7692,1.4739 -1.2782,2.1987 -1.2025,1.7133 -2.901,3.3352 -4.9031,4.8988 -1.9325,1.5105 -4.1478,2.968 -6.4719,4.4054 0.1018,0.5525 -0.0322,1.1616 -0.3602,1.7393 -0.3559,0.6265 -0.9459,1.2234 -1.7081,1.6628 l -0.0104,0.005 c -0.8388,0.482 -1.7359,0.6891 -2.5068,0.6343 -0.8197,-0.0583 -1.5088,-0.409 -1.8716,-1.0381 l -0.0444,-0.0765 v -0.007 c -0.315,-0.6134 -0.2628,-1.3504 0.08,-2.057 0.3402,-0.6987 0.9711,-1.3747 1.8125,-1.8603 0.7204,-0.4168 1.4853,-0.6299 2.1761,-0.6473 0.6352,-0.0157 1.2147,0.1331 1.6541,0.4411 z m -9.6026,-21.089 c 5.42,-1.1155 10.4414,-2.4467 13.7122,-4.7308 1.3165,-0.918 2.3563,-2.0004 3.2246,-3.1002 -1.192,-0.7361 -2.5398,-1.3974 -4.0895,-1.8099 -3.8868,-1.0354 -9.1145,-0.5534 -14.6388,0.2645 -0.1332,1.0442 -1.2991,2.0161 -2.854,2.2902 -1.7837,0.3141 -3.4013,-0.4081 -3.6136,-1.6149 -0.2132,-1.206 1.0598,-2.4381 2.8435,-2.7531 1.6202,-0.2854 3.1037,0.2854 3.5214,1.2965 5.6053,-0.8292 10.9252,-1.3174 14.9425,-0.2471 1.6732,0.4463 3.1089,1.1564 4.3688,1.9412 0.6048,-0.8266 1.1242,-1.6471 1.6002,-2.3998 0.8196,-1.2982 1.5192,-2.4032 2.3441,-3.0576 2.1848,-1.7332 4.8613,-0.1627 7.5369,1.4079 l 0.0279,0.0148 c 0.1792,0.1261 0.2227,0.3733 0.0974,0.5516 -0.1253,0.1793 -0.3715,0.2228 -0.5508,0.0975 -2.4328,-1.4296 -4.8648,-2.847 -6.6224,-1.4522 -0.7179,0.569 -1.3844,1.6227 -2.1657,2.8592 -0.4786,0.757 -0.9981,1.5783 -1.6037,2.4093 0.8536,0.5743 1.6228,1.1694 2.3311,1.7159 1.1572,0.8953 2.144,1.6575 3.0123,1.9464 2.1379,0.7127 3.9425,-1.4705 5.748,-3.6527 l 0.0148,-0.0183 c 0.1497,-0.1592 0.3994,-0.1671 0.5577,-0.0183 0.1575,0.1471 0.1671,0.3942 0.0209,0.5534 -1.9734,2.3859 -3.9477,4.7648 -6.5885,3.886 -0.9989,-0.3333 -2.0334,-1.1329 -3.2481,-2.0718 -0.7048,-0.5447 -1.4731,-1.139 -2.3241,-1.7089 -0.9154,1.1686 -2.0222,2.3276 -3.4422,3.3195 -3.3795,2.3598 -8.4871,3.7171 -13.9836,4.8492 -0.034,1.0998 -1.2373,2.1526 -2.8662,2.4398 -1.7837,0.3149 -3.4013,-0.409 -3.6144,-1.615 -0.2124,-1.206 1.0606,-2.4389 2.8444,-2.753 1.5462,-0.2724 2.9671,0.2349 3.4569,1.1607 z m -1.3843,-23.7507 c 2.6521,0.3864 5.2268,0.6892 7.6004,0.7753 2.4285,0.087 4.656,-0.0505 6.5511,-0.5551 0.7553,-0.2019 1.4636,-0.4647 2.1284,-0.7657 0.5499,-0.2506 1.0693,-0.5264 1.5609,-0.8179 -0.3619,-0.4412 -0.7561,-0.878 -1.1877,-1.3026 -0.522,-0.5116 -1.0981,-1.0006 -1.7385,-1.4479 -1.6192,-1.1303 -3.6858,-2.0265 -6.022,-2.7791 -2.2884,-0.7361 -4.8361,-1.3357 -7.4804,-1.8812 -0.3054,0.4446 -0.7988,0.7866 -1.4026,0.9919 -0.6579,0.2228 -1.4531,0.2863 -2.2771,0.141 -0.9572,-0.1688 -1.782,-0.5891 -2.3407,-1.1303 -0.5821,-0.563 -0.884,-1.2625 -0.7709,-1.9673 l 0.005,-0.0305 c 0.1253,-0.7152 0.6535,-1.2808 1.4044,-1.6158 0.71,-0.3176 1.628,-0.4298 2.5825,-0.2619 0.8614,0.1523 1.6167,0.5073 2.1657,0.9719 0.5047,0.4264 0.8406,0.9493 0.9389,1.501 2.7034,0.5577 5.3138,1.1729 7.6709,1.9351 2.4398,0.7892 4.6125,1.7376 6.3458,2.948 0.7265,0.5072 1.3722,1.0563 1.9517,1.6271 0.5011,0.4925 0.9545,1.0041 1.3713,1.5209 0.3323,-0.2279 0.6517,-0.4594 0.9588,-0.6882 0.382,-0.2846 0.7501,-0.5691 1.1025,-0.8406 0.6117,-0.4733 1.1781,-0.911 1.7228,-1.2764 0.5569,-0.3733 1.0902,-0.6691 1.621,-0.8458 1.4418,-0.4803 2.6913,-0.0765 3.8442,0.7692 1.1059,0.811 2.1065,2.0213 3.1072,3.2316 l 0.0365,0.0453 c 0.114,0.1636 0.1514,0.3567 0.1201,0.536 -0.0322,0.1809 -0.1331,0.3506 -0.2958,0.4637 -0.1619,0.1149 -0.3559,0.1523 -0.5369,0.1201 -0.1766,-0.0304 -0.342,-0.1279 -0.4559,-0.2828 -0.885,-1.0711 -1.7716,-2.1405 -2.68,-2.8392 -0.8588,-0.6613 -1.7463,-0.9962 -2.6895,-0.6821 -0.8145,0.2714 -1.782,1.0189 -2.9149,1.8942 -0.3559,0.275 -0.7257,0.5604 -1.1172,0.8527 -0.3115,0.2315 -0.6318,0.4638 -0.9572,0.69 0.5308,0.7475 0.9893,1.4731 1.4148,2.1457 l 0.007,0.0105 c 0.3855,0.6108 0.7431,1.1772 1.0946,1.6628 0.3376,0.4672 0.6656,0.8527 0.998,1.1163 1.5906,1.2617 3.9364,-0.114 6.2814,-1.4896 l 0.1053,-0.0601 h 0.02 c 0.154,-0.0556 0.3167,-0.0548 0.4646,-0.007 0.1741,0.0565 0.3272,0.181 0.4168,0.3567 l 0.0357,0.0696 v 0.0131 c 0.0539,0.1523 0.0539,0.3141 0.008,0.4594 -0.0565,0.1758 -0.1784,0.3289 -0.3515,0.4194 -1.3478,0.7901 -2.6965,1.5784 -4.0034,1.9578 -1.3696,0.3976 -2.6791,0.348 -3.8677,-0.5943 -0.4368,-0.3472 -0.837,-0.8075 -1.2329,-1.3487 -0.3855,-0.5282 -0.7692,-1.1346 -1.1825,-1.789 -0.2436,-0.3854 -0.4986,-0.7883 -0.7483,-1.1685 -0.208,-0.3159 -0.4281,-0.6413 -0.6648,-0.9728 -0.5638,0.3402 -1.1651,0.6648 -1.8098,0.9589 -0.744,0.3402 -1.5393,0.636 -2.3902,0.8631 -2.0248,0.5386 -4.3671,0.6891 -6.9044,0.6013 -2.4563,-0.0853 -5.0902,-0.3925 -7.791,-0.7858 -0.2776,0.489 -0.7718,0.8693 -1.3931,1.1007 -0.6778,0.2515 -1.5122,0.3289 -2.3771,0.1767 -0.9572,-0.1688 -1.782,-0.5882 -2.3406,-1.1294 -0.5822,-0.5639 -0.8832,-1.2634 -0.771,-1.9674 l 0.005,-0.0304 c 0.1252,-0.7153 0.6534,-1.2808 1.4043,-1.6167 0.7031,-0.3141 1.6097,-0.4272 2.5538,-0.2663 l 0.0296,0.005 c 0.8196,0.1444 1.5418,0.4724 2.0822,0.9031 0.4968,0.3968 0.8457,0.8832 0.9841,1.4009 z m 6.1996,-22.3263 c 4.8691,2.6295 9.5721,4.8379 13.5459,5.1903 1.5976,0.1427 3.0907,-0.0174 4.462,-0.302 -0.4394,-1.3304 -1.0468,-2.7025 -1.9691,-4.0164 -2.3119,-3.2908 -6.6268,-6.2823 -11.3837,-9.2058 -0.7736,0.7143 -2.2919,0.7091 -3.6589,-0.081 -1.5679,-0.9049 -2.3423,-2.4989 -1.7297,-3.5596 0.6116,-1.0607 2.3797,-1.1868 3.9477,-0.2811 1.4243,0.8223 2.1944,2.2136 1.8638,3.256 4.8274,2.968 9.2162,6.0143 11.6056,9.4164 0.9954,1.4174 1.6393,2.8844 2.0987,4.2958 0.9954,-0.2445 1.9203,-0.5404 2.7687,-0.811 1.4627,-0.4664 2.7087,-0.864 3.7606,-0.8353 2.7888,0.0766 3.8294,3.0002 4.8692,5.9238 l 0.0113,0.0296 c 0.0574,0.2114 -0.0687,0.428 -0.2793,0.4846 -0.2106,0.0566 -0.4281,-0.0687 -0.4847,-0.2793 -0.9449,-2.6591 -1.8959,-5.3077 -4.14,-5.3695 -0.9153,-0.0261 -2.103,0.3542 -3.497,0.7988 -0.8518,0.2715 -1.7785,0.5673 -2.7765,0.8153 0.2845,0.9876 0.4916,1.9377 0.6822,2.8122 0.3115,1.4296 0.5777,2.6478 1.0572,3.4274 1.1798,1.9186 3.9651,1.4078 6.7503,0.8962 l 0.0235,-0.004 c 0.2167,-0.0261 0.4133,0.128 0.4394,0.3437 0.0261,0.215 -0.1261,0.4099 -0.3393,0.4377 -3.0454,0.5595 -6.0874,1.1129 -7.5457,-1.2582 -0.5508,-0.8962 -0.8301,-2.1744 -1.1564,-3.6745 -0.1896,-0.8701 -0.3967,-1.8194 -0.6821,-2.8026 -1.4522,0.3063 -3.0446,0.4829 -4.77,0.3298 -4.1061,-0.3646 -8.8908,-2.6069 -13.8296,-5.2747 -0.7327,0.8205 -2.3311,0.8545 -3.7641,0.0279 -1.568,-0.9058 -2.3424,-2.4999 -1.7307,-3.5606 0.6126,-1.0606 2.3806,-1.1868 3.9486,-0.281 1.3591,0.7848 2.1222,2.0874 1.9021,3.1115 z M 142.592,87.4288 c 1.7803,1.9987 3.5588,3.8842 5.3243,5.4783 1.8063,1.6306 3.6005,2.9567 5.3729,3.7867 0.7074,0.3307 1.4192,0.5848 2.1231,0.7805 0.5795,0.161 1.1564,0.2837 1.7229,0.3768 0.006,-0.5725 -0.014,-1.1607 -0.0723,-1.7611 -0.0704,-0.7231 -0.1975,-1.467 -0.402,-2.2266 -0.5142,-1.9082 -1.5209,-3.9225 -2.8261,-5.9995 -1.2782,-2.0335 -2.8453,-4.1296 -4.5211,-6.2483 -0.5186,0.1436 -1.1164,0.0879 -1.7107,-0.1436 -0.6482,-0.2514 -1.2982,-0.7152 -1.8368,-1.3565 -0.623,-0.7431 -0.9858,-1.594 -1.0659,-2.3676 -0.0844,-0.817 0.141,-1.5575 0.6979,-2.0239 0.5568,-0.4672 1.3243,-0.5612 2.1143,-0.3358 0.7466,0.2132 1.5219,0.7178 2.1466,1.4618 0.563,0.6708 0.9128,1.4278 1.0346,2.1361 0.1122,0.65 0.0331,1.2669 -0.2454,1.7524 1.7089,2.1614 3.3125,4.3088 4.6316,6.4145 1.3635,2.1744 2.4181,4.2975 2.9671,6.3362 0.2289,0.851 0.3707,1.6872 0.4481,2.5007 0.067,0.7013 0.0862,1.3852 0.074,2.0457 0.8971,0.087 1.7533,0.1218 2.5442,0.154 l 0.0148,8e-4 c 0.7762,0.0305 1.4949,0.0601 2.1405,0.1297 0.6691,0.0713 1.2686,0.1879 1.7872,0.3924 1.4122,0.5586 2.1101,1.6724 2.4503,3.0619 0.3245,1.327 0.3132,2.8975 0.3028,4.4664 v 0.0635 c -0.0166,0.1966 -0.114,0.3689 -0.255,0.4881 -0.1409,0.1192 -0.3271,0.1836 -0.5238,0.1671 -0.1975,-0.0192 -0.3689,-0.1149 -0.4872,-0.255 -0.1193,-0.1418 -0.1836,-0.328 -0.1671,-0.5247 0.0104,-1.3808 0.0174,-2.7591 -0.2297,-3.8815 -0.2332,-1.0581 -0.697,-1.8856 -1.6202,-2.251 -0.7996,-0.3159 -2.0143,-0.3655 -3.4387,-0.4229 l -0.0139,-9e-4 c -0.4551,-0.0182 -0.9319,-0.0374 -1.4009,-0.0644 -0.3837,-0.0226 -0.777,-0.0496 -1.1781,-0.087 -0.074,0.9058 -0.1897,1.7637 -0.2967,2.559 l -0.002,0.006 c -0.0966,0.7153 -0.1862,1.3792 -0.2297,1.9778 -0.0409,0.576 -0.0374,1.0824 0.047,1.4966 0.2001,0.9771 0.9397,1.5793 1.9482,1.9926 1.0668,0.4376 2.4468,0.6717 3.8259,0.904 l 0.0444,0.008 c 0.1923,0.0453 0.3498,0.1645 0.4463,0.3202 0.0966,0.1567 0.1349,0.3498 0.0897,0.5413 -0.0435,0.1905 -0.1619,0.3471 -0.3168,0.4446 -0.1548,0.0966 -0.3463,0.1357 -0.5368,0.094 -1.5401,-0.2611 -3.0802,-0.5238 -4.3254,-1.0729 -1.3043,-0.576 -2.2762,-1.4566 -2.5807,-2.9419 -0.1123,-0.5481 -0.1218,-1.1581 -0.0775,-1.8272 0.0435,-0.6482 0.1401,-1.3609 0.2437,-2.1292 0.0574,-0.4263 0.1183,-0.8727 0.1775,-1.3756 0.0443,-0.382 0.0852,-0.7744 0.1166,-1.1729 -0.6535,-0.1027 -1.3226,-0.2402 -2.003,-0.4281 -0.7832,-0.2158 -1.5819,-0.5012 -2.385,-0.8771 -1.8995,-0.8884 -3.792,-2.2797 -5.6775,-3.9764 -1.8229,-1.6411 -3.6432,-3.5701 -5.4618,-5.6097 -0.5264,0.1958 -1.1503,0.1697 -1.7733,-0.0522 -0.6743,-0.2393 -1.3573,-0.7109 -1.9203,-1.3756 l -0.0165,-0.0192 c -0.623,-0.7431 -0.985,-1.594 -1.0659,-2.3676 -0.0836,-0.8083 0.1375,-1.5401 0.6804,-2.0082 l 0.0183,-0.0157 c 0.556,-0.4663 1.3243,-0.5612 2.1135,-0.3358 0.7465,0.2132 1.5218,0.7178 2.1466,1.4618 l 0.0148,0.0174 c 0.5264,0.6343 0.864,1.3426 0.9997,2.0143 0.1262,0.6221 0.0801,1.2182 -0.1462,1.7045 z m 19.4845,-13.0265 c 0.9876,2.4825 2.0135,4.8614 3.1299,6.9688 1.1389,2.1474 2.371,4.0069 3.7545,5.3947 0.5525,0.5543 1.1338,1.0363 1.7272,1.4601 0.4907,0.3506 0.9902,0.6621 1.4905,0.9441 0.201,-0.536 0.3828,-1.0955 0.5334,-1.6794 0.181,-0.7022 0.3158,-1.4452 0.3837,-2.2301 0.1697,-1.9699 -0.0879,-4.207 -0.6039,-6.6059 -0.5064,-2.3537 -1.2616,-4.8579 -2.11,-7.4177 -0.5369,-0.0427 -1.0798,-0.2985 -1.5601,-0.7188 -0.5221,-0.4585 -0.9745,-1.1163 -1.2608,-1.9029 -0.3324,-0.9127 -0.3811,-1.8359 -0.1923,-2.5895 0.1992,-0.797 0.6648,-1.4148 1.3478,-1.6636 0.683,-0.248 1.4366,-0.074 2.1022,0.4081 0.6291,0.4559 1.1851,1.1946 1.5175,2.1074 0.2984,0.8214 0.368,1.6523 0.241,2.3597 -0.1175,0.6509 -0.4029,1.2043 -0.8301,1.5645 0.8693,2.6243 1.6428,5.1929 2.1596,7.6109 0.5369,2.5077 0.8014,4.8631 0.6204,6.967 -0.0757,0.8797 -0.2288,1.7142 -0.4342,2.506 -0.1775,0.6821 -0.3932,1.3312 -0.6308,1.9481 0.355,0.1689 0.7161,0.3307 1.0737,0.4847 0.4786,0.2062 0.8893,0.3759 1.28,0.5351 0.7143,0.2933 1.3765,0.5647 1.9656,0.8545 0.603,0.2958 1.1259,0.6099 1.5436,0.9797 1.1372,1.0094 1.413,2.2937 1.2573,3.7137 -0.1488,1.3574 -0.6961,2.8287 -1.2434,4.3001 l -0.0235,0.0618 c -0.0835,0.1792 -0.2332,0.3097 -0.4055,0.3724 -0.1723,0.0618 -0.3689,0.0592 -0.5473,-0.0235 -0.181,-0.0853 -0.3106,-0.2349 -0.3733,-0.4072 -0.06,-0.1662 -0.0583,-0.3568 0.0183,-0.5325 0.4838,-1.3017 0.9658,-2.6026 1.1181,-3.7415 0.1427,-1.0755 -0.0104,-2.0126 -0.7535,-2.6713 -0.3167,-0.281 -0.7527,-0.5368 -1.2713,-0.7883 -0.5386,-0.261 -1.1598,-0.516 -1.8298,-0.7901 -0.4351,-0.1792 -0.8884,-0.3646 -1.2939,-0.5395 -0.3454,-0.1487 -0.7048,-0.3088 -1.0772,-0.4855 -0.1705,0.3733 -0.3428,0.7266 -0.5125,1.0633 -0.2193,0.4368 -0.4368,0.8501 -0.6439,1.2451 -0.3393,0.6465 -0.6543,1.246 -0.8927,1.7803 -0.2349,0.5247 -0.4046,1.0006 -0.4664,1.4218 -0.1462,0.9867 0.342,1.8055 1.1477,2.5381 0.8562,0.7796 2.0717,1.4705 3.2864,2.1605 l 0.0374,0.0217 c 0.1662,0.1088 0.2733,0.2741 0.3115,0.4534 0.0375,0.1792 0.007,0.3741 -0.1009,0.5386 -0.1079,0.1653 -0.2715,0.2723 -0.4498,0.3106 -0.1715,0.0374 -0.3594,0.0113 -0.5221,-0.0879 -1.3635,-0.7752 -2.727,-1.5505 -3.7128,-2.4963 -1.0285,-0.9867 -1.6402,-2.1466 -1.4183,-3.6458 0.0809,-0.5525 0.2811,-1.1294 0.5517,-1.7429 0.2636,-0.5977 0.5977,-1.2338 0.958,-1.9186 0.2071,-0.3941 0.4246,-0.8074 0.6369,-1.2312 0.1697,-0.3376 0.3411,-0.6909 0.5107,-1.0641 -0.5803,-0.3202 -1.1633,-0.6779 -1.7358,-1.0859 -0.6631,-0.4725 -1.3165,-1.0129 -1.9421,-1.6402 -1.481,-1.4844 -2.7827,-3.4387 -3.9747,-5.6784 -1.1468,-2.157 -2.1988,-4.5951 -3.2125,-7.1393 -0.5621,0.0052 -1.139,-0.2332 -1.6506,-0.656 -0.5551,-0.4595 -1.0407,-1.1443 -1.3408,-1.9717 -0.3324,-0.9137 -0.382,-1.8368 -0.1932,-2.5895 0.1932,-0.7683 0.6326,-1.3704 1.2764,-1.6349 l 0.0479,-0.0488 h 0.0835 c 0.6665,-0.2184 1.3957,-0.0409 2.0422,0.4281 0.6256,0.4525 1.179,1.186 1.5123,2.0927 l 0.005,0.0147 c 0.2845,0.7823 0.3619,1.5723 0.2593,2.2545 -0.094,0.6291 -0.342,1.1747 -0.7214,1.554 z" style="fill: #333; fill-rule: evenodd;" id="path2"/>
  </g>
  <path d="M 116.055 133.128 L 99.025 133.128 L 99.025 110.218 L 116.055 110.218 C 124.215 110.218 128.805 114.598 128.805 121.468 C 128.805 128.448 124.125 133.128 116.055 133.128 Z M 127.605 104.638 C 131.595 101.458 134.475 97.068 134.475 91.688 C 134.475 81.538 127.905 72.868 115.655 72.868 L 89.555 72.868 L 89.555 82.328 L 115.655 82.328 C 121.925 82.328 124.615 86.518 124.615 91.688 C 124.615 96.868 121.035 101.258 114.165 101.258 L 89.555 101.258 L 89.555 142.588 L 116.055 142.588 C 129.295 142.588 138.565 134.018 138.565 121.468 C 138.565 113.308 134.175 107.528 127.605 104.638 ZM 165.55 93.788 C 153.1 93.788 147.33 101.948 146.13 108.028 L 154.7 109.818 C 156.09 104.738 160.08 102.448 164.86 102.248 C 168.94 101.948 174.32 104.038 173.62 108.728 C 173.12 112.108 167.84 112.508 161.67 114.098 C 151.81 116.688 145.24 119.478 144.14 128.938 C 143.24 136.808 149.32 144.278 160.57 143.288 C 168.04 142.588 172.13 138.998 173.92 136.908 L 173.92 142.588 L 183.28 142.588 L 183.28 111.418 C 183.28 98.668 175.61 93.788 165.55 93.788 Z M 173.92 122.068 C 173.92 129.638 166.75 134.318 161.87 134.718 C 156.59 135.118 154.8 133.128 154.5 130.938 C 154.2 129.038 154.7 124.958 163.26 122.768 C 169.64 121.178 173.92 119.978 173.92 119.978 L 173.92 122.068 ZM 214.555 93.888 C 209.575 93.888 205.395 95.878 202.205 99.158 L 202.205 94.578 L 192.745 94.578 L 192.745 142.588 L 202.205 142.588 L 202.205 115.798 C 202.205 106.828 206.885 103.348 212.765 103.348 C 218.345 103.348 222.825 107.028 222.825 116.398 L 222.825 142.588 L 232.285 142.588 L 232.285 115.498 C 232.285 101.648 225.815 93.888 214.555 93.888 ZM 271.226 142.588 L 282.486 142.588 L 265.556 117.588 L 281.686 94.578 L 270.436 94.578 L 257.086 114.098 L 251.306 114.098 L 251.306 72.868 L 241.746 72.868 L 241.746 142.588 L 251.306 142.588 L 251.306 123.068 L 258.186 123.068 L 271.226 142.588 ZM 322.222 127.248 C 321.622 119.678 316.052 116.398 305.092 114.398 C 297.322 113.008 295.332 110.818 295.332 108.228 C 295.332 106.438 296.532 103.148 302.902 103.148 C 306.682 103.148 310.572 105.238 311.662 108.528 L 320.632 105.438 C 319.832 102.448 315.252 93.888 302.902 93.888 C 289.652 93.888 284.572 103.448 285.872 111.018 C 287.062 118.288 292.742 121.178 302.002 123.068 C 309.472 124.558 312.362 125.958 312.662 128.248 C 313.062 130.938 310.572 134.018 304.192 134.018 C 297.722 134.018 294.532 131.038 293.442 128.048 L 284.472 131.238 C 286.762 137.808 293.642 143.488 304.592 143.488 C 315.552 143.488 323.022 136.608 322.222 127.248 ZM 329.596 142.588 L 339.056 142.588 L 339.056 94.578 L 329.596 94.578 L 329.596 142.588 Z M 334.376 87.208 C 337.366 87.208 339.856 84.718 339.856 81.628 C 339.856 78.648 337.366 76.158 334.376 76.158 C 331.286 76.158 328.796 78.648 328.796 81.628 C 328.796 84.718 331.286 87.208 334.376 87.208 ZM 367.838 93.788 C 355.388 93.788 349.618 101.948 348.418 108.028 L 356.988 109.818 C 358.378 104.738 362.368 102.448 367.148 102.248 C 371.228 101.948 376.608 104.038 375.908 108.728 C 375.408 112.108 370.128 112.508 363.958 114.098 C 354.098 116.688 347.528 119.478 346.428 128.938 C 345.528 136.808 351.608 144.278 362.858 143.288 C 370.328 142.588 374.418 138.998 376.208 136.908 L 376.208 142.588 L 385.568 142.588 L 385.568 111.418 C 385.568 98.668 377.898 93.788 367.838 93.788 Z M 376.208 122.068 C 376.208 129.638 369.038 134.318 364.158 134.718 C 358.878 135.118 357.088 133.128 356.788 130.938 C 356.488 129.038 356.988 124.958 365.548 122.768 C 371.928 121.178 376.208 119.978 376.208 119.978 L 376.208 122.068 ZM 474.91 103.448 L 474.91 129.038 C 471.23 132.328 464.45 134.918 455.59 133.828 C 442.04 132.128 431.68 122.168 431.68 107.828 C 431.68 93.388 442.24 82.728 455.79 81.828 C 465.15 81.138 473.42 84.118 477.5 87.408 L 482.38 80.238 C 475.91 75.058 465.85 71.578 454.89 72.268 C 435.27 73.568 421.92 88.108 421.92 107.828 C 421.92 127.448 435.17 141.298 454.69 143.288 C 468.84 144.778 479.69 138.808 484.37 132.428 L 484.37 103.448 L 474.91 103.448 ZM 511.365 132.628 C 509.675 134.118 507.485 134.318 505.785 133.628 C 503.695 132.728 502.895 130.638 502.895 127.048 L 502.895 67.888 L 493.335 67.888 L 493.335 127.148 C 493.335 135.918 495.825 141.098 501.905 142.788 C 506.885 144.178 512.555 142.888 516.245 139.298 L 511.365 132.628 ZM 541.639 93.888 C 527.699 93.888 518.239 105.038 518.239 118.588 C 518.239 132.128 527.799 143.288 541.639 143.288 C 555.589 143.288 565.049 132.128 565.049 118.588 C 565.049 105.038 555.589 93.888 541.639 93.888 Z M 541.639 133.828 C 532.979 133.828 528.299 126.848 528.299 118.588 C 528.299 110.318 532.979 103.348 541.639 103.348 C 550.409 103.348 554.989 110.318 554.989 118.588 C 554.989 126.848 550.309 133.828 541.639 133.828 ZM 596.627 93.888 C 590.447 93.888 585.567 96.078 581.977 99.758 L 581.977 72.868 L 572.517 72.868 L 572.517 142.588 L 581.977 142.588 L 581.977 137.408 C 585.567 141.098 590.447 143.288 596.627 143.288 C 610.567 143.288 618.937 132.128 618.937 118.588 C 618.937 105.038 610.667 93.888 596.627 93.888 Z M 595.527 133.828 C 586.857 133.828 582.477 126.848 582.477 118.588 C 582.477 110.318 586.757 103.348 595.527 103.348 C 604.187 103.348 608.577 110.318 608.577 118.588 C 608.577 126.848 604.187 133.828 595.527 133.828 ZM 645.423 93.788 C 632.973 93.788 627.203 101.948 626.003 108.028 L 634.573 109.818 C 635.963 104.738 639.953 102.448 644.733 102.248 C 648.813 101.948 654.193 104.038 653.493 108.728 C 652.993 112.108 647.713 112.508 641.543 114.098 C 631.683 116.688 625.113 119.478 624.013 128.938 C 623.113 136.808 629.193 144.278 640.443 143.288 C 647.913 142.588 652.003 138.998 653.793 136.908 L 653.793 142.588 L 663.153 142.588 L 663.153 111.418 C 663.153 98.668 655.483 93.788 645.423 93.788 Z M 653.793 122.068 C 653.793 129.638 646.623 134.318 641.743 134.718 C 636.463 135.118 634.673 133.128 634.373 130.938 C 634.073 129.038 634.573 124.958 643.133 122.768 C 649.513 121.178 653.793 119.978 653.793 119.978 L 653.793 122.068 ZM 690.147 132.628 C 688.457 134.118 686.267 134.318 684.567 133.628 C 682.477 132.728 681.677 130.638 681.677 127.048 L 681.677 67.888 L 672.117 67.888 L 672.117 127.148 C 672.117 135.918 674.607 141.098 680.687 142.788 C 685.667 144.178 691.337 142.888 695.027 139.298 L 690.147 132.628 Z" transform="matrix(1, 0, 0, 1, 0, 0)" style="fill: #333;white-space: pre;"/>
</svg>